<?xml version="1.0" encoding="UTF-8" standalone="no"?>
<svg width="271px" height="196px" viewBox="0 0 271 196" version="1.1" xmlns="http://www.w3.org/2000/svg" xmlns:xlink="http://www.w3.org/1999/xlink" xmlns:sketch="http://www.bohemiancoding.com/sketch/ns">
    <!-- Generator: Sketch 3.1 (8751) - http://www.bohemiancoding.com/sketch -->
    <title>Next_Door_logo</title>
    <desc>Created with Sketch.</desc>
    <defs></defs>
    <g id="Page-1" stroke="none" stroke-width="1" fill="none" fill-rule="evenodd" sketch:type="MSPage">
        <path d="M214.432605,175.065749 L215.616654,175.065749 L215.616654,182.449927 L220.043453,182.449927 L220.043453,183.44856 L214.432605,183.44856 L214.432605,175.065749 Z M221.209652,175.065749 L222.393702,175.065749 L222.393702,182.449927 L226.8205,182.449927 L226.8205,183.44856 L221.209652,183.44856 L221.209652,175.065749 Z M234.246097,175.676342 C234.856967,176.235579 235.196113,176.870894 235.263547,177.582304 L234.109248,177.582304 C233.978347,177.042089 233.717541,176.614107 233.326823,176.298348 C232.936104,175.982588 232.387718,175.82471 231.681648,175.82471 C230.820878,175.82471 230.125727,176.114786 229.596174,176.694948 C229.066622,177.275109 228.80185,178.164359 228.80185,179.362724 C228.80185,180.344243 229.040839,181.140288 229.518824,181.750884 C229.99681,182.36148 230.709811,182.666773 231.657848,182.666773 C232.530519,182.666773 233.194929,182.345312 233.651098,181.702379 C233.893065,181.363793 234.073547,180.918693 234.192548,180.367064 L235.346847,180.367064 C235.243713,181.24967 234.902583,181.989602 234.323447,182.586883 C233.629278,183.305902 232.693154,183.665406 231.515049,183.665406 C230.499577,183.665406 229.646753,183.370575 228.956549,182.780903 C228.048179,182.001014 227.594,180.79696 227.594,179.168704 C227.594,177.932295 227.93513,176.918455 228.6174,176.127153 C229.355203,175.267374 230.372642,174.83749 231.669748,174.83749 C232.776454,174.83749 233.635228,175.117105 234.246097,175.676342 L234.246097,175.676342 Z" id="LLC" fill="#ffffff" sketch:type="MSShapeGroup" transform="translate(225.145576, 179.251448) rotate(-90.000000) translate(-225.145576, -179.251448) "></path>
        <g id="next-door" sketch:type="MSLayerGroup" transform="translate(1.000000, 118.000000)" fill="#38B8ED">
            <path d="M34.7327731,37.6895349 C34.7327731,38.172093 34.6321429,38.5581395 34.4308824,38.944186 C34.2296218,39.3302326 34.0283613,39.6197674 33.7264706,39.9093023 C33.4245798,40.1988372 33.1226891,40.2953488 32.7201681,40.4883721 C32.3176471,40.5848837 31.9151261,40.6813953 31.512605,40.6813953 L27.889916,40.6813953 C27.0848739,40.6813953 26.4810924,40.5848837 25.9779412,40.4883721 C25.4747899,40.2953488 24.8710084,40.1023256 24.4684874,39.7162791 C23.9653361,39.3302326 23.5628151,38.8476744 23.1602941,38.172093 C22.7577731,37.4965116 22.2546218,36.627907 21.6508403,35.6627907 L11.1852941,16.8430233 C10.5815126,15.6848837 9.97773109,14.5267442 9.37394958,13.1755814 C8.77016807,11.9209302 8.16638655,10.6662791 7.66323529,9.41162791 L7.56260504,9.41162791 C7.66323529,10.8593023 7.66323529,12.4034884 7.76386555,13.8511628 C7.76386555,15.2988372 7.8644958,16.8430233 7.8644958,18.4837209 L7.8644958,39.5232558 C7.8644958,39.7162791 7.76386555,39.9093023 7.66323529,40.1023256 C7.56260504,40.2953488 7.36134454,40.3918605 7.05945378,40.4883721 C6.75756303,40.5848837 6.35504202,40.6813953 5.85189076,40.777907 C5.3487395,40.8744186 4.74495798,40.8744186 3.93991597,40.8744186 C3.13487395,40.8744186 2.53109244,40.8744186 2.02794118,40.777907 C1.52478992,40.6813953 1.12226891,40.5848837 0.820378151,40.4883721 C0.518487395,40.3918605 0.317226891,40.1988372 0.216596639,40.1023256 C0.115966387,39.9093023 0.0153361345,39.7162791 0.0153361345,39.5232558 L0.0153361345,3.33139535 C0.0153361345,2.36627907 0.317226891,1.59418605 0.921008403,1.11162791 C1.52478992,0.629069767 2.22920168,0.339534884 3.13487395,0.339534884 L7.66323529,0.339534884 C8.46827731,0.339534884 9.17268908,0.436046512 9.77647059,0.53255814 C10.3802521,0.629069767 10.8834034,0.918604651 11.2859244,1.20813953 C11.6884454,1.49767442 12.1915966,1.98023256 12.4934874,2.4627907 C12.8960084,3.04186047 13.2985294,3.71744186 13.7010504,4.48953488 L21.8521008,19.1593023 C22.3552521,20.027907 22.7577731,20.8965116 23.2609244,21.7651163 C23.7640756,22.6337209 24.1665966,23.5023256 24.5691176,24.3709302 C24.9716387,25.2395349 25.3741597,26.1081395 25.8773109,26.8802326 C26.2798319,27.7488372 26.6823529,28.5209302 27.0848739,29.3895349 L27.0848739,29.3895349 C26.9842437,27.9418605 26.9842437,26.3976744 26.9842437,24.8534884 L26.9842437,20.3174419 L26.9842437,1.40116279 C26.9842437,1.20813953 27.0848739,1.01511628 27.1855042,0.822093023 C27.2861345,0.629069767 27.487395,0.53255814 27.7892857,0.339534884 C28.0911765,0.243023256 28.4936975,0.146511628 28.9968487,0.05 C29.5,-0.0465116279 30.1037815,-0.0465116279 30.9088235,-0.0465116279 C31.6132353,-0.0465116279 32.2170168,-0.0465116279 32.7201681,0.05 C33.2233193,0.146511628 33.6258403,0.146511628 33.8271008,0.339534884 C34.1289916,0.436046512 34.3302521,0.629069767 34.4308824,0.822093023 C34.5315126,1.01511628 34.6321429,1.20813953 34.6321429,1.40116279 L34.6321429,37.6895349 L34.7327731,37.6895349 Z" id="Shape" sketch:type="MSShapeGroup"></path>
            <path d="M67.437605,24.7569767 C67.437605,25.722093 67.2363445,26.3976744 66.7331933,26.8802326 C66.3306723,27.3627907 65.7268908,27.555814 64.9218487,27.555814 L47.3115546,27.555814 C47.3115546,28.7139535 47.4121849,29.7755814 47.7140756,30.7406977 C48.0159664,31.705814 48.5191176,32.477907 49.1228992,33.1534884 C49.7266807,33.8290698 50.5317227,34.3116279 51.5380252,34.6976744 C52.5443277,35.0837209 53.7518908,35.1802326 55.1607143,35.1802326 C56.5695378,35.1802326 57.8777311,35.0837209 58.8840336,34.8906977 C59.9909664,34.6976744 60.8966387,34.5046512 61.7016807,34.2151163 C62.5067227,34.022093 63.1105042,33.7325581 63.6136555,33.5395349 C64.1168067,33.3465116 64.5193277,33.25 64.9218487,33.25 C65.1231092,33.25 65.3243697,33.25 65.425,33.3465116 C65.5256303,33.4430233 65.6262605,33.5395349 65.7268908,33.7325581 C65.827521,33.9255814 65.827521,34.2151163 65.9281513,34.5046512 L65.9281513,35.7593023 L65.9281513,36.9174419 C65.9281513,37.2069767 65.827521,37.4965116 65.827521,37.7860465 C65.827521,37.9790698 65.7268908,38.172093 65.6262605,38.3651163 C65.5256303,38.5581395 65.425,38.6546512 65.3243697,38.8476744 C65.2237395,39.0406977 64.8212185,39.2337209 64.217437,39.4267442 C63.6136555,39.7162791 62.8086134,39.9093023 61.8023109,40.1988372 C60.7960084,40.3918605 59.6890756,40.6813953 58.4815126,40.777907 C57.2739496,40.9709302 55.8651261,41.0674419 54.4563025,41.0674419 C51.839916,41.0674419 49.6260504,40.777907 47.7140756,40.1023256 C45.8021008,39.5232558 44.1920168,38.5581395 42.8838235,37.3034884 C41.5756303,36.0488372 40.5693277,34.4081395 39.9655462,32.477907 C39.3617647,30.5476744 38.9592437,28.327907 38.9592437,25.722093 C38.9592437,23.2127907 39.2611345,20.9930233 39.9655462,19.0627907 C40.669958,17.0360465 41.5756303,15.3953488 42.8838235,14.044186 C44.1920168,12.6930233 45.7014706,11.6313953 47.5128151,10.8593023 C49.3241597,10.0872093 51.437395,9.79767442 53.6512605,9.79767442 C56.0663866,9.79767442 58.1796218,10.1837209 59.8903361,10.8593023 C61.6010504,11.5348837 63.0098739,12.5 64.1168067,13.6581395 C65.2237395,14.9127907 66.0287815,16.2639535 66.5319328,18.0011628 C67.035084,19.6418605 67.3369748,21.4755814 67.3369748,23.405814 L67.3369748,24.7569767 L67.437605,24.7569767 Z M59.4878151,22.5372093 C59.5884454,20.3174419 59.0852941,18.5802326 58.0789916,17.3255814 C57.0726891,16.0709302 55.5632353,15.4918605 53.5506303,15.4918605 C52.5443277,15.4918605 51.6386555,15.6848837 50.8336134,16.0709302 C50.0285714,16.4569767 49.4247899,16.9395349 48.9216387,17.6151163 C48.4184874,18.2906977 48.0159664,18.9662791 47.7140756,19.8348837 C47.4121849,20.7034884 47.3115546,21.572093 47.2109244,22.6337209 L59.4878151,22.6337209 L59.4878151,22.5372093 Z" id="Shape" sketch:type="MSShapeGroup"></path>
            <path d="M96.6203782,38.8476744 C96.8216387,39.2337209 96.9222689,39.5232558 96.8216387,39.7162791 C96.8216387,39.9093023 96.6203782,40.1023256 96.3184874,40.2953488 C96.0165966,40.4883721 95.5134454,40.5848837 94.9096639,40.5848837 C94.3058824,40.6813953 93.5008403,40.6813953 92.3939076,40.6813953 L90.0794118,40.6813953 C89.4756303,40.6813953 88.972479,40.5848837 88.6705882,40.4883721 C88.3686975,40.3918605 88.0668067,40.2953488 87.9661765,40.1023256 C87.764916,40.005814 87.6642857,39.8127907 87.5636555,39.6197674 L82.2302521,29.7755814 L76.8968487,39.6197674 C76.7962185,39.8127907 76.6955882,40.005814 76.4943277,40.1023256 C76.2930672,40.1988372 76.0918067,40.3918605 75.789916,40.4883721 C75.4880252,40.5848837 75.0855042,40.6813953 74.4817227,40.6813953 L72.2678571,40.6813953 C71.3621849,40.6813953 70.5571429,40.6813953 69.9533613,40.5848837 C69.3495798,40.4883721 68.9470588,40.3918605 68.7457983,40.2953488 C68.4439076,40.1988372 68.3432773,40.005814 68.3432773,39.7162791 C68.3432773,39.5232558 68.4439076,39.2337209 68.6451681,38.8476744 L76.6955882,25.2395349 L69.3495798,12.4034884 C69.1483193,12.0174419 69.0476891,11.727907 69.0476891,11.4383721 C69.0476891,11.1488372 69.1483193,10.955814 69.4502101,10.8593023 C69.7521008,10.6662791 70.1546218,10.5697674 70.7584034,10.5697674 C71.3621849,10.4732558 72.1672269,10.4732558 73.2741597,10.4732558 L75.5886555,10.4732558 C76.192437,10.4732558 76.594958,10.5697674 76.8968487,10.5697674 C77.1987395,10.6662791 77.5006303,10.7627907 77.6012605,10.8593023 C77.802521,10.955814 77.9031513,11.1488372 78.0037815,11.3418605 L83.1359244,20.6069767 L88.2680672,11.3418605 C88.3686975,11.1488372 88.4693277,11.0523256 88.569958,10.8593023 C88.6705882,10.7627907 88.8718487,10.6662791 89.1737395,10.5697674 C89.4756303,10.4732558 89.8781513,10.3767442 90.2806723,10.3767442 C90.7838235,10.3767442 91.387605,10.2802326 92.2932773,10.2802326 C93.1989496,10.2802326 94.0039916,10.2802326 94.6077731,10.3767442 C95.2115546,10.3767442 95.6140756,10.4732558 95.8153361,10.6662791 C96.0165966,10.8593023 96.2178571,11.0523256 96.2178571,11.2453488 C96.2178571,11.5348837 96.1172269,11.8244186 95.8153361,12.2104651 L88.569958,24.7569767 L96.6203782,38.8476744 L96.6203782,38.8476744 Z" id="Shape" sketch:type="MSShapeGroup"></path>
            <path d="M119.060924,36.7244186 C119.060924,37.5930233 118.960294,38.3651163 118.859664,38.8476744 C118.759034,39.3302326 118.557773,39.7162791 118.356513,39.9093023 C118.155252,40.1023256 117.853361,40.2953488 117.45084,40.3918605 C117.048319,40.5848837 116.645798,40.6813953 116.142647,40.777907 C115.639496,40.8744186 115.035714,40.9709302 114.532563,41.0674419 C113.928782,41.1639535 113.325,41.1639535 112.721218,41.1639535 C111.111134,41.1639535 109.702311,40.9709302 108.494748,40.5848837 C107.287185,40.1988372 106.280882,39.6197674 105.576471,38.7511628 C104.771429,37.9790698 104.268277,36.9174419 103.865756,35.6627907 C103.463235,34.4081395 103.362605,32.9604651 103.362605,31.2232558 L103.362605,17.0360465 L99.9411765,17.0360465 C99.5386555,17.0360465 99.2367647,16.7465116 99.0355042,16.2639535 C98.8342437,15.7813953 98.7336134,15.0093023 98.7336134,13.8511628 C98.7336134,13.272093 98.7336134,12.7895349 98.8342437,12.3069767 C98.9348739,11.9209302 98.9348739,11.5348837 99.0355042,11.3418605 C99.1361345,11.1488372 99.2367647,10.955814 99.4380252,10.8593023 C99.6392857,10.7627907 99.739916,10.6662791 100.041807,10.6662791 L103.463235,10.6662791 L103.463235,4.48953488 C103.463235,4.29651163 103.563866,4.10348837 103.664496,3.91046512 C103.765126,3.71744186 103.966387,3.62093023 104.268277,3.5244186 C104.570168,3.42790698 104.972689,3.33139535 105.576471,3.23488372 C106.079622,3.13837209 106.784034,3.13837209 107.589076,3.13837209 C108.394118,3.13837209 109.098529,3.13837209 109.601681,3.23488372 C110.104832,3.33139535 110.507353,3.33139535 110.809244,3.5244186 C111.111134,3.62093023 111.312395,3.81395349 111.413025,3.91046512 C111.513655,4.10348837 111.614286,4.29651163 111.614286,4.48953488 L111.614286,10.6662791 L117.953992,10.6662791 C118.155252,10.6662791 118.356513,10.7627907 118.557773,10.8593023 C118.759034,10.955814 118.859664,11.1488372 118.960294,11.3418605 C119.060924,11.5348837 119.161555,11.9209302 119.161555,12.3069767 C119.262185,12.6930233 119.262185,13.272093 119.262185,13.8511628 C119.262185,15.0093023 119.161555,15.7813953 118.960294,16.2639535 C118.759034,16.7465116 118.457143,17.0360465 118.054622,17.0360465 L111.714916,17.0360465 L111.714916,30.0651163 C111.714916,31.6093023 111.916176,32.6709302 112.419328,33.4430233 C112.922479,34.2151163 113.828151,34.6011628 115.035714,34.6011628 C115.438235,34.6011628 115.840756,34.6011628 116.243277,34.5046512 C116.545168,34.4081395 116.847059,34.3116279 117.14895,34.2151163 C117.45084,34.1186047 117.652101,34.022093 117.853361,33.9255814 C118.054622,33.8290698 118.155252,33.8290698 118.356513,33.8290698 C118.457143,33.8290698 118.658403,33.8290698 118.759034,33.9255814 C118.859664,34.022093 118.960294,34.1186047 119.060924,34.4081395 C119.161555,34.6011628 119.161555,34.8906977 119.262185,35.2767442 C119.060924,35.6627907 119.060924,36.1453488 119.060924,36.7244186 L119.060924,36.7244186 Z" id="Shape" sketch:type="MSShapeGroup"></path>
            <path d="M172.696849,19.8348837 C172.696849,23.5023256 172.193697,26.6872093 171.187395,29.2930233 C170.181092,31.8988372 168.772269,34.022093 166.860294,35.7593023 C164.948319,37.4 162.734454,38.6546512 160.017437,39.4267442 C157.30042,40.1988372 154.080252,40.5848837 150.356933,40.5848837 L140.293908,40.5848837 C139.589496,40.5848837 138.985714,40.3918605 138.482563,40.005814 C137.979412,39.6197674 137.778151,38.944186 137.778151,38.0755814 L137.778151,2.84883721 C137.778151,1.98023256 137.979412,1.30465116 138.482563,0.918604651 C138.985714,0.53255814 139.589496,0.339534884 140.293908,0.339534884 L151.061345,0.339534884 C154.784664,0.339534884 158.004832,0.725581395 160.621218,1.59418605 C163.237605,2.4627907 165.451471,3.71744186 167.162185,5.35813953 C168.973529,6.99883721 170.281723,9.0255814 171.187395,11.4383721 C172.193697,13.7546512 172.696849,16.5534884 172.696849,19.8348837 L172.696849,19.8348837 Z M163.841387,20.027907 C163.841387,18.0976744 163.640126,16.3604651 163.136975,14.7197674 C162.633824,13.0790698 161.929412,11.6313953 160.923109,10.4732558 C159.916807,9.31511628 158.608613,8.35 156.998529,7.6744186 C155.388445,6.99883721 153.27521,6.70930233 150.658824,6.70930233 L146.331723,6.70930233 L146.331723,34.1186047 L150.759454,34.1186047 C153.07395,34.1186047 155.086555,33.8290698 156.696639,33.25 C158.306723,32.6709302 159.614916,31.8023256 160.721849,30.644186 C161.828782,29.4860465 162.633824,28.0383721 163.136975,26.3011628 C163.640126,24.4674419 163.841387,22.4406977 163.841387,20.027907 L163.841387,20.027907 Z" id="Shape" sketch:type="MSShapeGroup"></path>
            <path d="M208.420588,25.3360465 C208.420588,27.6523256 208.118697,29.872093 207.414286,31.8023256 C206.810504,33.7325581 205.804202,35.4697674 204.496008,36.8209302 C203.187815,38.2686047 201.477101,39.3302326 199.565126,40.1023256 C197.552521,40.8744186 195.238025,41.2604651 192.621639,41.2604651 C190.005252,41.2604651 187.791387,40.8744186 185.879412,40.1988372 C183.967437,39.5232558 182.357353,38.5581395 181.14979,37.2069767 C179.942227,35.855814 178.935924,34.3116279 178.332143,32.3813953 C177.728361,30.4511628 177.426471,28.327907 177.426471,25.8186047 C177.426471,23.5023256 177.728361,21.2825581 178.432773,19.3523256 C179.137185,17.422093 180.042857,15.6848837 181.35105,14.3337209 C182.659244,12.9825581 184.269328,11.8244186 186.281933,11.0523256 C188.294538,10.2802326 190.609034,9.89418605 193.22542,9.89418605 C195.841807,9.89418605 198.055672,10.1837209 199.967647,10.8593023 C201.879622,11.5348837 203.489706,12.5 204.697269,13.8511628 C205.904832,15.2023256 206.911134,16.7465116 207.514916,18.6767442 C208.118697,20.6069767 208.420588,22.8267442 208.420588,25.3360465 L208.420588,25.3360465 Z M200.068277,25.6255814 C200.068277,24.2744186 199.967647,23.0197674 199.766387,21.8616279 C199.565126,20.7034884 199.162605,19.7383721 198.659454,18.8697674 C198.156303,18.0011628 197.351261,17.3255814 196.546218,16.8430233 C195.640546,16.3604651 194.533613,16.1674419 193.12479,16.1674419 C191.917227,16.1674419 190.810294,16.3604651 189.904622,16.8430233 C188.99895,17.2290698 188.294538,17.9046512 187.690756,18.6767442 C187.086975,19.4488372 186.684454,20.5104651 186.382563,21.6686047 C186.080672,22.8267442 185.980042,24.177907 185.980042,25.6255814 C185.980042,26.9767442 186.080672,28.2313953 186.382563,29.3895349 C186.583824,30.5476744 186.986345,31.5127907 187.489496,32.3813953 C187.992647,33.25 188.697059,33.9255814 189.602731,34.3116279 C190.508403,34.794186 191.615336,34.9872093 193.02416,34.9872093 C194.231723,34.9872093 195.338655,34.794186 196.244328,34.3116279 C197.15,33.9255814 197.854412,33.25 198.458193,32.477907 C199.061975,31.705814 199.464496,30.644186 199.766387,29.5825581 C199.967647,28.4244186 200.068277,27.0732558 200.068277,25.6255814 L200.068277,25.6255814 Z" id="Shape" sketch:type="MSShapeGroup"></path>
            <path d="M244.144328,25.3360465 C244.144328,27.6523256 243.842437,29.872093 243.138025,31.8023256 C242.534244,33.7325581 241.527941,35.4697674 240.219748,36.8209302 C238.911555,38.2686047 237.20084,39.3302326 235.288866,40.1023256 C233.276261,40.8744186 230.961765,41.2604651 228.345378,41.2604651 C225.728992,41.2604651 223.515126,40.8744186 221.603151,40.1988372 C219.691176,39.5232558 218.081092,38.5581395 216.873529,37.2069767 C215.665966,35.855814 214.659664,34.3116279 214.055882,32.3813953 C213.452101,30.4511628 213.15021,28.327907 213.15021,25.8186047 C213.15021,23.5023256 213.452101,21.2825581 214.156513,19.3523256 C214.860924,17.422093 215.766597,15.6848837 217.07479,14.3337209 C218.382983,12.9825581 219.993067,11.8244186 222.005672,11.0523256 C224.018277,10.2802326 226.332773,9.89418605 228.94916,9.89418605 C231.565546,9.89418605 233.779412,10.1837209 235.691387,10.8593023 C237.603361,11.5348837 239.213445,12.5 240.421008,13.8511628 C241.628571,15.2023256 242.634874,16.7465116 243.238655,18.6767442 C243.842437,20.6069767 244.144328,22.8267442 244.144328,25.3360465 L244.144328,25.3360465 Z M235.792017,25.6255814 C235.792017,24.2744186 235.691387,23.0197674 235.490126,21.8616279 C235.288866,20.7034884 234.886345,19.7383721 234.383193,18.8697674 C233.880042,18.0011628 233.075,17.3255814 232.269958,16.8430233 C231.364286,16.3604651 230.257353,16.1674419 228.848529,16.1674419 C227.640966,16.1674419 226.534034,16.3604651 225.628361,16.8430233 C224.722689,17.2290698 224.018277,17.9046512 223.414496,18.6767442 C222.810714,19.4488372 222.408193,20.5104651 222.106303,21.6686047 C221.804412,22.8267442 221.703782,24.177907 221.703782,25.6255814 C221.703782,26.9767442 221.804412,28.2313953 222.106303,29.3895349 C222.307563,30.5476744 222.710084,31.5127907 223.213235,32.3813953 C223.716387,33.25 224.420798,33.9255814 225.326471,34.3116279 C226.232143,34.794186 227.339076,34.9872093 228.747899,34.9872093 C229.955462,34.9872093 231.062395,34.794186 231.968067,34.3116279 C232.873739,33.8290698 233.578151,33.25 234.181933,32.477907 C234.785714,31.705814 235.188235,30.644186 235.490126,29.5825581 C235.590756,28.4244186 235.792017,27.0732558 235.792017,25.6255814 L235.792017,25.6255814 Z" id="Shape" sketch:type="MSShapeGroup"></path>
            <path d="M269.201261,14.3337209 C269.201261,15.105814 269.201261,15.6848837 269.10063,16.1674419 C269.10063,16.65 269,17.0360465 268.89937,17.3255814 C268.798739,17.6151163 268.698109,17.8081395 268.597479,17.9046512 C268.496849,18.0011628 268.295588,18.0976744 268.094328,18.0976744 C267.893067,18.0976744 267.691807,18.0976744 267.490546,18.0011628 C267.289286,17.9046512 266.987395,17.8081395 266.786134,17.8081395 C266.484244,17.7116279 266.182353,17.6151163 265.880462,17.6151163 C265.578571,17.5186047 265.17605,17.5186047 264.773529,17.5186047 C264.371008,17.5186047 263.867857,17.6151163 263.364706,17.8081395 C262.962185,18.0011628 262.459034,18.2906977 261.955882,18.6767442 C261.452731,19.0627907 260.94958,19.5453488 260.446429,20.1244186 C259.943277,20.7034884 259.339496,21.4755814 258.735714,22.4406977 L258.735714,39.7162791 C258.735714,39.9093023 258.635084,40.1023256 258.534454,40.2953488 C258.433824,40.4883721 258.232563,40.5848837 257.830042,40.6813953 C257.528151,40.777907 257.12563,40.8744186 256.622479,40.8744186 C256.119328,40.9709302 255.414916,40.9709302 254.609874,40.9709302 C253.804832,40.9709302 253.20105,40.9709302 252.597269,40.8744186 C252.094118,40.777907 251.691597,40.777907 251.389706,40.6813953 C251.087815,40.5848837 250.886555,40.4883721 250.685294,40.2953488 C250.584664,40.1023256 250.484034,40.005814 250.484034,39.7162791 L250.484034,12.0174419 C250.484034,11.8244186 250.584664,11.6313953 250.685294,11.4383721 C250.785924,11.2453488 250.987185,11.1488372 251.289076,11.0523256 C251.590966,10.955814 251.892857,10.8593023 252.396008,10.8593023 C252.798529,10.7627907 253.402311,10.7627907 254.106723,10.7627907 C254.811134,10.7627907 255.414916,10.7627907 255.817437,10.8593023 C256.219958,10.955814 256.622479,10.955814 256.823739,11.0523256 C257.025,11.1488372 257.226261,11.2453488 257.326891,11.4383721 C257.427521,11.6313953 257.528151,11.727907 257.528151,12.0174419 L257.528151,15.4918605 C258.333193,14.4302326 259.037605,13.5616279 259.641387,12.8860465 C260.345798,12.2104651 260.94958,11.6313953 261.553361,11.2453488 C262.157143,10.8593023 262.760924,10.5697674 263.364706,10.3767442 C263.968487,10.1837209 264.572269,10.1837209 265.17605,10.1837209 L266.081723,10.1837209 C266.383613,10.1837209 266.786134,10.2802326 267.088025,10.3767442 C267.389916,10.4732558 267.691807,10.5697674 267.993697,10.6662791 C268.295588,10.7627907 268.396218,10.8593023 268.597479,10.955814 C268.698109,11.0523256 268.798739,11.1488372 268.89937,11.3418605 C269,11.4383721 269,11.6313953 269,11.8244186 C269,12.0174419 269.10063,12.4034884 269.10063,12.7895349 C269.201261,12.9825581 269.201261,13.5616279 269.201261,14.3337209 L269.201261,14.3337209 Z" id="Shape" sketch:type="MSShapeGroup"></path>
        </g>
        <g id="Pet-Sitters" sketch:type="MSLayerGroup" transform="translate(39.556723, 169.104651)" fill="#ffffff">
            <path d="M14.8932773,6.75581395 C14.8932773,7.91395349 14.6920168,8.9755814 14.2894958,9.84418605 C13.8869748,10.7127907 13.3838235,11.4848837 12.5787815,12.1604651 C11.8743697,12.7395349 10.9686975,13.222093 9.86176471,13.6081395 C8.75483193,13.8976744 7.54726891,14.0906977 6.13844538,14.0906977 L4.32710084,14.0906977 L4.32710084,20.75 C4.32710084,20.8465116 4.32710084,20.9430233 4.22647059,21.0395349 C4.12584034,21.1360465 4.02521008,21.2325581 3.82394958,21.2325581 C3.62268908,21.3290698 3.42142857,21.3290698 3.11953782,21.3290698 C2.81764706,21.3290698 2.5157563,21.4255814 2.01260504,21.4255814 C1.61008403,21.4255814 1.20756303,21.4255814 0.905672269,21.3290698 C0.603781513,21.2325581 0.402521008,21.2325581 0.201260504,21.2325581 C5.77315973e-15,21.1360465 -0.100630252,21.1360465 -0.201260504,21.0395349 C-0.301890756,20.9430233 -0.301890756,20.8465116 -0.301890756,20.75 L-0.301890756,1.93023256 C-0.301890756,1.44767442 -0.201260504,1.06162791 0.100630252,0.772093023 C0.402521008,0.48255814 0.704411765,0.386046512 1.20756303,0.386046512 L6.33970588,0.386046512 C6.84285714,0.386046512 7.3460084,0.386046512 7.84915966,0.48255814 C8.35231092,0.48255814 8.85546218,0.579069767 9.55987395,0.772093023 C10.1636555,0.868604651 10.8680672,1.15813953 11.572479,1.44767442 C12.2768908,1.7372093 12.780042,2.21976744 13.2831933,2.70232558 C13.7863445,3.18488372 14.0882353,3.76395349 14.3901261,4.53604651 C14.6920168,5.11511628 14.8932773,5.8872093 14.8932773,6.75581395 L14.8932773,6.75581395 Z M10.2642857,7.04534884 C10.2642857,6.27325581 10.1636555,5.69418605 9.86176471,5.21162791 C9.55987395,4.72906977 9.25798319,4.34302326 8.85546218,4.15 C8.45294118,3.95697674 8.05042017,3.76395349 7.64789916,3.76395349 C7.24537815,3.66744186 6.74222689,3.66744186 6.33970588,3.66744186 L4.42773109,3.66744186 L4.42773109,10.7127907 L6.44033613,10.7127907 C7.1447479,10.7127907 7.74852941,10.6162791 8.25168067,10.4232558 C8.75483193,10.2302326 9.15735294,9.94069767 9.4592437,9.65116279 C9.76113445,9.36162791 9.96239496,8.9755814 10.1636555,8.49302326 C10.1636555,8.10697674 10.2642857,7.52790698 10.2642857,7.04534884 L10.2642857,7.04534884 Z" id="Shape" sketch:type="MSShapeGroup"></path>
            <path d="M31.8997899,19.5918605 L31.8997899,20.3639535 C31.8997899,20.5569767 31.7991597,20.75 31.7991597,20.8465116 C31.6985294,20.9430233 31.6985294,21.0395349 31.5978992,21.1360465 C31.4972689,21.2325581 31.3966387,21.2325581 31.2960084,21.2325581 L20.3273109,21.2325581 C19.9247899,21.2325581 19.6228992,21.1360465 19.4216387,20.9430233 C19.2203782,20.75 19.0191176,20.3639535 19.0191176,19.8813953 L19.0191176,1.7372093 C19.0191176,1.25465116 19.1197479,0.965116279 19.4216387,0.675581395 C19.7235294,0.48255814 20.0254202,0.386046512 20.3273109,0.386046512 L31.1953782,0.386046512 C31.2960084,0.386046512 31.3966387,0.386046512 31.4972689,0.48255814 C31.5978992,0.579069767 31.5978992,0.675581395 31.6985294,0.772093023 C31.7991597,0.868604651 31.7991597,1.06162791 31.7991597,1.25465116 L31.7991597,2.02674419 L31.7991597,2.79883721 C31.7991597,2.99186047 31.6985294,3.18488372 31.6985294,3.28139535 C31.5978992,3.37790698 31.5978992,3.4744186 31.4972689,3.57093023 C31.3966387,3.66744186 31.2960084,3.66744186 31.1953782,3.66744186 L23.4468487,3.66744186 L23.4468487,8.78255814 L29.9878151,8.78255814 C30.0884454,8.78255814 30.1890756,8.78255814 30.2897059,8.87906977 C30.3903361,8.9755814 30.4909664,9.07209302 30.4909664,9.16860465 C30.5915966,9.26511628 30.5915966,9.45813953 30.5915966,9.65116279 L30.5915966,10.4232558 L30.5915966,11.1953488 C30.5915966,11.3883721 30.4909664,11.5813953 30.4909664,11.677907 C30.3903361,11.7744186 30.3903361,11.8709302 30.2897059,11.9674419 C30.1890756,12.0639535 30.0884454,12.0639535 29.9878151,12.0639535 L23.4468487,12.0639535 L23.4468487,17.9511628 L31.2960084,17.9511628 C31.3966387,17.9511628 31.4972689,17.9511628 31.5978992,18.0476744 C31.6985294,18.144186 31.7991597,18.2406977 31.7991597,18.3372093 C31.8997899,18.4337209 31.8997899,18.6267442 31.8997899,18.8197674 C31.7991597,19.0127907 31.8997899,19.3023256 31.8997899,19.5918605 L31.8997899,19.5918605 Z" id="Shape" sketch:type="MSShapeGroup"></path>
            <path d="M50.9189076,2.12325581 L50.9189076,2.89534884 C50.9189076,3.08837209 50.8182773,3.28139535 50.8182773,3.4744186 C50.7176471,3.57093023 50.7176471,3.66744186 50.6170168,3.76395349 C50.5163866,3.86046512 50.4157563,3.86046512 50.3151261,3.86046512 L44.8810924,3.86046512 L44.8810924,20.6534884 C44.8810924,20.75 44.8810924,20.8465116 44.7804622,20.9430233 C44.6798319,21.0395349 44.5792017,21.1360465 44.3779412,21.1360465 C44.1766807,21.2325581 43.9754202,21.2325581 43.6735294,21.2325581 C43.3716387,21.2325581 43.0697479,21.3290698 42.5665966,21.3290698 C42.1640756,21.3290698 41.7615546,21.3290698 41.4596639,21.2325581 C41.1577731,21.2325581 40.9565126,21.1360465 40.7552521,21.1360465 C40.5539916,21.0395349 40.4533613,21.0395349 40.3527311,20.9430233 C40.2521008,20.8465116 40.2521008,20.75 40.2521008,20.6534884 L40.2521008,3.86046512 L34.8180672,3.86046512 C34.717437,3.86046512 34.6168067,3.86046512 34.5161765,3.76395349 C34.4155462,3.66744186 34.4155462,3.57093023 34.314916,3.4744186 C34.2142857,3.37790698 34.2142857,3.18488372 34.2142857,2.89534884 L34.2142857,2.12325581 L34.2142857,1.25465116 C34.2142857,1.06162791 34.314916,0.868604651 34.314916,0.675581395 C34.4155462,0.579069767 34.4155462,0.48255814 34.5161765,0.386046512 C34.6168067,0.289534884 34.717437,0.289534884 34.8180672,0.289534884 L50.1138655,0.289534884 C50.2144958,0.289534884 50.3151261,0.289534884 50.4157563,0.386046512 C50.5163866,0.48255814 50.6170168,0.579069767 50.6170168,0.675581395 C50.7176471,0.772093023 50.7176471,0.965116279 50.7176471,1.25465116 C50.9189076,1.54418605 50.9189076,1.83372093 50.9189076,2.12325581 L50.9189076,2.12325581 Z" id="Shape" sketch:type="MSShapeGroup"></path>
            <path d="M75.4726891,14.9593023 C75.4726891,16.0209302 75.2714286,16.9860465 74.8689076,17.8546512 C74.4663866,18.7232558 73.862605,19.3988372 73.1581933,19.8813953 C72.4537815,20.4604651 71.5481092,20.8465116 70.642437,21.1360465 C69.6361345,21.4255814 68.6298319,21.522093 67.5228992,21.522093 C66.8184874,21.522093 66.1140756,21.4255814 65.4096639,21.3290698 C64.8058824,21.2325581 64.2021008,21.0395349 63.6989496,20.9430233 C63.1957983,20.75 62.7932773,20.5569767 62.4913866,20.4604651 C62.1894958,20.2674419 61.887605,20.0744186 61.7869748,19.977907 C61.6863445,19.8813953 61.5857143,19.5918605 61.485084,19.3988372 C61.3844538,19.1093023 61.3844538,18.7232558 61.3844538,18.2406977 L61.3844538,17.372093 C61.3844538,17.1790698 61.485084,16.9860465 61.485084,16.7930233 C61.485084,16.6965116 61.5857143,16.6 61.6863445,16.5034884 C61.7869748,16.4069767 61.887605,16.4069767 61.9882353,16.4069767 C62.1894958,16.4069767 62.3907563,16.5034884 62.6926471,16.6965116 C62.9945378,16.8895349 63.2964286,17.0825581 63.7995798,17.2755814 C64.2021008,17.4686047 64.8058824,17.6616279 65.4096639,17.8546512 C66.0134454,18.0476744 66.7178571,18.144186 67.5228992,18.144186 C68.0260504,18.144186 68.5292017,18.0476744 68.9317227,17.9511628 C69.3342437,17.8546512 69.7367647,17.6616279 70.0386555,17.4686047 C70.3405462,17.2755814 70.5418067,16.9860465 70.7430672,16.6 C70.9443277,16.3104651 70.9443277,15.9244186 70.9443277,15.4418605 C70.9443277,14.9593023 70.8436975,14.5732558 70.5418067,14.1872093 C70.239916,13.8011628 69.9380252,13.5116279 69.5355042,13.3186047 C69.1329832,13.0290698 68.6298319,12.8360465 68.0260504,12.5465116 C67.5228992,12.3534884 66.9191176,12.0639535 66.3153361,11.7744186 C65.7115546,11.4848837 65.2084034,11.1953488 64.6046218,10.905814 C64.1014706,10.6162791 63.5983193,10.2302326 63.0951681,9.74767442 C62.6926471,9.26511628 62.2901261,8.78255814 62.0888655,8.10697674 C61.7869748,7.52790698 61.6863445,6.75581395 61.6863445,5.8872093 C61.6863445,4.92209302 61.887605,4.05348837 62.2901261,3.28139535 C62.6926471,2.50930233 63.1957983,1.93023256 63.9002101,1.35116279 C64.6046218,0.868604651 65.3090336,0.48255814 66.2147059,0.193023256 C67.1203782,-0.0965116279 68.0260504,-0.193023256 69.0323529,-0.193023256 C69.5355042,-0.193023256 70.0386555,-0.193023256 70.5418067,-0.0965116279 C71.044958,1.57956981e-13 71.5481092,0.0965116279 71.9506303,0.193023256 C72.3531513,0.289534884 72.7556723,0.48255814 73.1581933,0.675581395 C73.460084,0.868604651 73.7619748,0.965116279 73.862605,1.06162791 C73.9632353,1.15813953 74.0638655,1.25465116 74.0638655,1.35116279 C74.0638655,1.44767442 74.1644958,1.54418605 74.1644958,1.64069767 C74.1644958,1.7372093 74.1644958,1.93023256 74.2651261,2.12325581 L74.2651261,2.79883721 L74.2651261,3.57093023 C74.2651261,3.76395349 74.2651261,3.95697674 74.1644958,4.15 C74.1644958,4.24651163 74.0638655,4.43953488 73.9632353,4.43953488 C73.862605,4.53604651 73.7619748,4.53604651 73.6613445,4.53604651 C73.5607143,4.53604651 73.3594538,4.43953488 73.057563,4.34302326 C72.7556723,4.15 72.4537815,4.05348837 72.0512605,3.86046512 C71.6487395,3.66744186 71.2462185,3.4744186 70.642437,3.37790698 C70.1392857,3.18488372 69.5355042,3.18488372 68.9317227,3.18488372 C68.4285714,3.18488372 68.0260504,3.28139535 67.6235294,3.37790698 C67.2210084,3.4744186 66.9191176,3.66744186 66.7178571,3.86046512 C66.5165966,4.05348837 66.3153361,4.34302326 66.2147059,4.53604651 C66.1140756,4.8255814 66.0134454,5.11511628 66.0134454,5.40465116 C66.0134454,5.8872093 66.1140756,6.27325581 66.4159664,6.5627907 C66.7178571,6.94883721 67.0197479,7.23837209 67.5228992,7.43139535 C67.9254202,7.72093023 68.4285714,7.91395349 69.0323529,8.20348837 C69.6361345,8.39651163 70.1392857,8.68604651 70.7430672,8.9755814 C71.3468487,9.26511628 71.85,9.55465116 72.4537815,9.84418605 C73.057563,10.1337209 73.5607143,10.5197674 73.9632353,11.0023256 C74.3657563,11.4848837 74.7682773,11.9674419 75.0701681,12.6430233 C75.3720588,13.4151163 75.4726891,14.1872093 75.4726891,14.9593023 L75.4726891,14.9593023 Z" id="Shape" sketch:type="MSShapeGroup"></path>
            <path d="M84.0262605,20.6534884 C84.0262605,20.75 84.0262605,20.8465116 83.9256303,20.9430233 C83.825,21.0395349 83.7243697,21.1360465 83.5231092,21.1360465 C83.3218487,21.2325581 83.1205882,21.2325581 82.8186975,21.2325581 C82.5168067,21.2325581 82.214916,21.3290698 81.7117647,21.3290698 C81.3092437,21.3290698 80.9067227,21.3290698 80.6048319,21.2325581 C80.3029412,21.2325581 80.1016807,21.1360465 79.9004202,21.1360465 C79.6991597,21.0395349 79.5985294,21.0395349 79.4978992,20.9430233 C79.3972689,20.8465116 79.3972689,20.75 79.3972689,20.6534884 L79.3972689,0.965116279 C79.3972689,0.868604651 79.3972689,0.772093023 79.4978992,0.675581395 C79.5985294,0.579069767 79.6991597,0.48255814 79.9004202,0.48255814 C80.1016807,0.386046512 80.3029412,0.386046512 80.6048319,0.386046512 L81.7117647,0.386046512 L82.8186975,0.386046512 C83.1205882,0.386046512 83.3218487,0.48255814 83.5231092,0.48255814 C83.7243697,0.579069767 83.825,0.579069767 83.9256303,0.675581395 C84.0262605,0.772093023 84.0262605,0.868604651 84.0262605,0.965116279 L84.0262605,20.6534884 L84.0262605,20.6534884 Z" id="Shape" sketch:type="MSShapeGroup"></path>
            <path d="M103.95105,2.12325581 L103.95105,2.89534884 C103.95105,3.08837209 103.85042,3.28139535 103.85042,3.4744186 C103.74979,3.57093023 103.74979,3.66744186 103.64916,3.76395349 C103.548529,3.86046512 103.447899,3.86046512 103.347269,3.86046512 L97.9132353,3.86046512 L97.9132353,20.6534884 C97.9132353,20.75 97.9132353,20.8465116 97.812605,20.9430233 C97.7119748,21.0395349 97.6113445,21.1360465 97.410084,21.1360465 C97.2088235,21.2325581 97.007563,21.2325581 96.7056723,21.2325581 C96.4037815,21.2325581 96.1018908,21.3290698 95.5987395,21.3290698 C95.1962185,21.3290698 94.7936975,21.3290698 94.4918067,21.2325581 C94.189916,21.2325581 93.9886555,21.1360465 93.787395,21.1360465 C93.5861345,21.0395349 93.4855042,21.0395349 93.3848739,20.9430233 C93.2842437,20.8465116 93.2842437,20.75 93.2842437,20.6534884 L93.2842437,3.86046512 L87.8502101,3.86046512 C87.7495798,3.86046512 87.6489496,3.86046512 87.5483193,3.76395349 C87.4476891,3.66744186 87.4476891,3.57093023 87.3470588,3.4744186 C87.2464286,3.37790698 87.2464286,3.18488372 87.2464286,2.89534884 L87.2464286,2.12325581 L87.2464286,1.25465116 C87.2464286,1.06162791 87.3470588,0.868604651 87.3470588,0.675581395 C87.4476891,0.579069767 87.4476891,0.48255814 87.5483193,0.386046512 C87.6489496,0.289534884 87.7495798,0.289534884 87.8502101,0.289534884 L103.146008,0.289534884 C103.246639,0.289534884 103.347269,0.289534884 103.447899,0.386046512 C103.548529,0.48255814 103.64916,0.579069767 103.64916,0.675581395 C103.74979,0.772093023 103.74979,0.965116279 103.74979,1.25465116 C103.85042,1.54418605 103.95105,1.83372093 103.95105,2.12325581 L103.95105,2.12325581 Z" id="Shape" sketch:type="MSShapeGroup"></path>
            <path d="M122.064496,2.12325581 L122.064496,2.89534884 C122.064496,3.08837209 121.963866,3.28139535 121.963866,3.4744186 C121.863235,3.57093023 121.863235,3.66744186 121.762605,3.76395349 C121.661975,3.86046512 121.561345,3.86046512 121.460714,3.86046512 L116.026681,3.86046512 L116.026681,20.6534884 C116.026681,20.75 116.026681,20.8465116 115.92605,20.9430233 C115.82542,21.0395349 115.72479,21.1360465 115.523529,21.1360465 C115.322269,21.2325581 115.121008,21.2325581 114.819118,21.2325581 C114.517227,21.2325581 114.215336,21.3290698 113.712185,21.3290698 C113.309664,21.3290698 112.907143,21.3290698 112.605252,21.2325581 C112.303361,21.2325581 112.102101,21.1360465 111.90084,21.1360465 C111.69958,21.0395349 111.59895,21.0395349 111.498319,20.9430233 C111.397689,20.8465116 111.397689,20.75 111.397689,20.6534884 L111.397689,3.86046512 L105.963655,3.86046512 C105.863025,3.86046512 105.762395,3.86046512 105.661765,3.76395349 C105.561134,3.66744186 105.561134,3.57093023 105.460504,3.4744186 C105.359874,3.37790698 105.359874,3.18488372 105.359874,2.89534884 L105.359874,2.12325581 L105.359874,1.25465116 C105.359874,1.06162791 105.460504,0.868604651 105.460504,0.675581395 C105.561134,0.579069767 105.561134,0.48255814 105.661765,0.386046512 C105.762395,0.289534884 105.863025,0.289534884 105.963655,0.289534884 L121.259454,0.289534884 C121.360084,0.289534884 121.460714,0.289534884 121.561345,0.386046512 C121.661975,0.48255814 121.762605,0.579069767 121.762605,0.675581395 C121.863235,0.772093023 121.863235,0.965116279 121.863235,1.25465116 C122.064496,1.54418605 122.064496,1.83372093 122.064496,2.12325581 L122.064496,2.12325581 Z" id="Shape" sketch:type="MSShapeGroup"></path>
            <path d="M138.165336,19.5918605 L138.165336,20.3639535 C138.165336,20.5569767 138.064706,20.75 138.064706,20.8465116 C137.964076,20.9430233 137.964076,21.0395349 137.863445,21.1360465 C137.762815,21.2325581 137.662185,21.2325581 137.561555,21.2325581 L126.592857,21.2325581 C126.190336,21.2325581 125.888445,21.1360465 125.687185,20.9430233 C125.485924,20.75 125.284664,20.3639535 125.284664,19.8813953 L125.284664,1.7372093 C125.284664,1.25465116 125.385294,0.965116279 125.687185,0.675581395 C125.989076,0.48255814 126.290966,0.386046512 126.592857,0.386046512 L137.460924,0.386046512 C137.561555,0.386046512 137.662185,0.386046512 137.762815,0.48255814 C137.863445,0.579069767 137.863445,0.675581395 137.964076,0.772093023 C138.064706,0.868604651 138.064706,1.06162791 138.064706,1.25465116 L138.064706,2.02674419 L138.064706,2.79883721 C138.064706,2.99186047 137.964076,3.18488372 137.964076,3.28139535 C137.863445,3.37790698 137.863445,3.4744186 137.762815,3.57093023 C137.662185,3.66744186 137.561555,3.66744186 137.460924,3.66744186 L129.712395,3.66744186 L129.712395,8.78255814 L136.253361,8.78255814 C136.353992,8.78255814 136.454622,8.78255814 136.555252,8.87906977 C136.655882,8.9755814 136.756513,9.07209302 136.756513,9.16860465 C136.857143,9.26511628 136.857143,9.45813953 136.857143,9.65116279 L136.857143,10.4232558 L136.857143,11.1953488 C136.857143,11.3883721 136.756513,11.5813953 136.756513,11.677907 C136.655882,11.7744186 136.655882,11.8709302 136.555252,11.9674419 C136.454622,12.0639535 136.353992,12.0639535 136.253361,12.0639535 L129.712395,12.0639535 L129.712395,17.9511628 L137.561555,17.9511628 C137.662185,17.9511628 137.762815,17.9511628 137.863445,18.0476744 C137.964076,18.144186 138.064706,18.2406977 138.064706,18.3372093 C138.165336,18.4337209 138.165336,18.6267442 138.165336,18.8197674 C138.165336,19.0127907 138.165336,19.3023256 138.165336,19.5918605 L138.165336,19.5918605 Z" id="Shape" sketch:type="MSShapeGroup"></path>
            <path d="M158.895168,20.6534884 C158.895168,20.75 158.895168,20.8465116 158.794538,20.9430233 C158.794538,21.0395349 158.593277,21.1360465 158.492647,21.1360465 C158.291387,21.2325581 158.090126,21.2325581 157.788235,21.2325581 L156.480042,21.2325581 L155.373109,21.2325581 C155.071218,21.2325581 154.869958,21.1360465 154.668697,21.1360465 C154.467437,21.0395349 154.366807,21.0395349 154.366807,20.9430233 C154.266176,20.8465116 154.266176,20.75 154.165546,20.6534884 L152.253571,16.0209302 C152.052311,15.5383721 151.75042,15.055814 151.54916,14.5732558 C151.347899,14.1872093 151.046008,13.8011628 150.844748,13.5116279 C150.542857,13.222093 150.240966,13.0290698 149.939076,12.9325581 C149.536555,12.8360465 149.134034,12.7395349 148.731513,12.7395349 L147.322689,12.7395349 L147.322689,20.6534884 C147.322689,20.75 147.322689,20.8465116 147.222059,20.9430233 C147.121429,21.0395349 147.020798,21.1360465 146.819538,21.1360465 C146.618277,21.2325581 146.417017,21.2325581 146.115126,21.2325581 C145.813235,21.2325581 145.511345,21.3290698 145.008193,21.3290698 C144.605672,21.3290698 144.203151,21.3290698 143.901261,21.2325581 C143.59937,21.2325581 143.398109,21.1360465 143.196849,21.1360465 C142.995588,21.0395349 142.894958,21.0395349 142.794328,20.9430233 C142.693697,20.8465116 142.693697,20.75 142.693697,20.6534884 L142.693697,1.7372093 C142.693697,1.25465116 142.794328,0.965116279 143.096218,0.675581395 C143.398109,0.48255814 143.7,0.386046512 144.001891,0.386046512 L149.637185,0.386046512 L151.046008,0.386046512 C151.448529,0.386046512 151.75042,0.386046512 152.052311,0.48255814 C152.957983,0.579069767 153.763025,0.772093023 154.366807,1.06162791 C155.071218,1.35116279 155.675,1.7372093 156.178151,2.21976744 C156.681303,2.70232558 157.083824,3.28139535 157.285084,3.86046512 C157.586975,4.53604651 157.687605,5.21162791 157.687605,6.08023256 C157.687605,6.75581395 157.586975,7.43139535 157.385714,8.01046512 C157.184454,8.58953488 156.882563,9.07209302 156.580672,9.55465116 C156.178151,10.0372093 155.77563,10.4232558 155.272479,10.7127907 C154.769328,11.0023256 154.165546,11.2918605 153.461134,11.4848837 C153.763025,11.677907 154.064916,11.7744186 154.366807,12.0639535 C154.668697,12.2569767 154.970588,12.5465116 155.171849,12.8360465 C155.373109,13.1255814 155.675,13.5116279 155.876261,13.8976744 C156.077521,14.2837209 156.278782,14.7662791 156.580672,15.2488372 L158.392017,19.3988372 C158.593277,19.7848837 158.693908,20.0744186 158.693908,20.2674419 C158.895168,20.4604651 158.895168,20.5569767 158.895168,20.6534884 L158.895168,20.6534884 Z M153.259874,6.5627907 C153.259874,5.8872093 153.058613,5.30813953 152.756723,4.8255814 C152.454832,4.34302326 151.85105,4.05348837 151.146639,3.86046512 C150.945378,3.76395349 150.643487,3.76395349 150.341597,3.76395349 L149.134034,3.76395349 L147.121429,3.76395349 L147.121429,9.65116279 L149.335294,9.65116279 C149.939076,9.65116279 150.542857,9.55465116 150.945378,9.45813953 C151.448529,9.26511628 151.85105,9.07209302 152.152941,8.87906977 C152.454832,8.58953488 152.656092,8.3 152.857353,7.91395349 C153.159244,7.43139535 153.259874,7.04534884 153.259874,6.5627907 L153.259874,6.5627907 Z" id="Shape" sketch:type="MSShapeGroup"></path>
            <path d="M175.398529,14.9593023 C175.398529,16.0209302 175.197269,16.9860465 174.794748,17.8546512 C174.392227,18.7232558 173.788445,19.3988372 173.084034,19.8813953 C172.379622,20.4604651 171.47395,20.8465116 170.568277,21.1360465 C169.561975,21.4255814 168.555672,21.522093 167.448739,21.522093 C166.744328,21.522093 166.039916,21.4255814 165.335504,21.3290698 C164.731723,21.2325581 164.127941,21.0395349 163.62479,20.9430233 C163.121639,20.75 162.719118,20.5569767 162.417227,20.4604651 C162.115336,20.2674419 161.813445,20.0744186 161.712815,19.977907 C161.612185,19.8813953 161.511555,19.5918605 161.410924,19.3988372 C161.310294,19.1093023 161.310294,18.7232558 161.310294,18.2406977 L161.310294,17.372093 C161.310294,17.1790698 161.410924,16.9860465 161.410924,16.7930233 C161.511555,16.6965116 161.511555,16.6 161.612185,16.5034884 C161.712815,16.4069767 161.813445,16.4069767 161.914076,16.4069767 C162.115336,16.4069767 162.316597,16.5034884 162.618487,16.6965116 C162.920378,16.8895349 163.222269,17.0825581 163.72542,17.2755814 C164.127941,17.4686047 164.731723,17.6616279 165.335504,17.8546512 C165.939286,18.0476744 166.643697,18.144186 167.448739,18.144186 C167.951891,18.144186 168.455042,18.0476744 168.857563,17.9511628 C169.260084,17.8546512 169.662605,17.6616279 169.964496,17.4686047 C170.266387,17.2755814 170.467647,16.9860465 170.668908,16.6 C170.870168,16.3104651 170.870168,15.9244186 170.870168,15.4418605 C170.870168,14.9593023 170.769538,14.5732558 170.467647,14.1872093 C170.165756,13.8011628 169.863866,13.5116279 169.461345,13.3186047 C169.058824,13.0290698 168.555672,12.8360465 167.951891,12.5465116 C167.448739,12.3534884 166.844958,12.0639535 166.241176,11.7744186 C165.637395,11.4848837 165.134244,11.1953488 164.530462,10.905814 C164.027311,10.6162791 163.52416,10.2302326 163.021008,9.74767442 C162.618487,9.26511628 162.215966,8.78255814 162.014706,8.10697674 C161.712815,7.52790698 161.612185,6.75581395 161.612185,5.8872093 C161.612185,4.92209302 161.813445,4.05348837 162.215966,3.28139535 C162.618487,2.50930233 163.121639,1.93023256 163.82605,1.35116279 C164.530462,0.868604651 165.234874,0.48255814 166.140546,0.193023256 C167.046218,-0.0965116279 167.951891,-0.193023256 168.958193,-0.193023256 C169.461345,-0.193023256 169.964496,-0.193023256 170.467647,-0.0965116279 C170.970798,1.57956981e-13 171.47395,0.0965116279 171.876471,0.193023256 C172.278992,0.289534884 172.681513,0.48255814 173.084034,0.675581395 C173.385924,0.868604651 173.687815,0.965116279 173.788445,1.06162791 C173.889076,1.15813953 173.989706,1.25465116 173.989706,1.35116279 C173.989706,1.44767442 174.090336,1.54418605 174.090336,1.64069767 C174.090336,1.7372093 174.090336,1.93023256 174.190966,2.12325581 L174.190966,2.79883721 L174.190966,3.57093023 C174.190966,3.76395349 174.190966,3.95697674 174.090336,4.15 C174.090336,4.24651163 173.989706,4.43953488 173.889076,4.43953488 C173.788445,4.53604651 173.687815,4.53604651 173.587185,4.53604651 C173.486555,4.53604651 173.285294,4.43953488 172.983403,4.34302326 C172.681513,4.15 172.379622,4.05348837 171.977101,3.86046512 C171.57458,3.66744186 171.172059,3.4744186 170.568277,3.37790698 C170.065126,3.18488372 169.461345,3.18488372 168.857563,3.18488372 C168.354412,3.18488372 167.951891,3.28139535 167.54937,3.37790698 C167.146849,3.4744186 166.844958,3.66744186 166.643697,3.86046512 C166.442437,4.05348837 166.241176,4.34302326 166.140546,4.53604651 C166.039916,4.8255814 165.939286,5.11511628 165.939286,5.40465116 C165.939286,5.8872093 166.039916,6.27325581 166.341807,6.5627907 C166.643697,6.94883721 166.945588,7.23837209 167.448739,7.43139535 C167.851261,7.72093023 168.354412,7.91395349 168.958193,8.20348837 C169.561975,8.39651163 170.065126,8.68604651 170.668908,8.9755814 C171.272689,9.26511628 171.77584,9.55465116 172.379622,9.84418605 C172.983403,10.1337209 173.486555,10.5197674 173.889076,11.0023256 C174.291597,11.4848837 174.694118,11.9674419 174.996008,12.6430233 C175.297899,13.4151163 175.398529,14.1872093 175.398529,14.9593023 L175.398529,14.9593023 Z" id="Shape" sketch:type="MSShapeGroup"></path>
        </g>
        <path d="M191.206513,23.372093 C192.112185,21.4418605 194.426681,20.9593023 196.338655,21.1523256 C197.948739,22.1174419 199.558824,23.372093 199.860714,25.3023256 C200.665756,29.355814 199.961345,33.505814 199.659454,37.5593023 C199.055672,43.7360465 198.15,50.2023256 194.12479,55.3174419 L194.627941,55.3174419 C198.25063,55.6069767 201.672059,56.7651163 204.389076,59.0813953 C204.489706,58.5023256 204.590336,57.4406977 204.690966,56.8616279 C205.99916,50.2988372 210.125,44.7976744 214.04958,39.3930233 C216.766597,35.9186047 219.483613,31.1895349 224.716387,31.0930233 C226.728992,31.8651163 228.842227,33.6023256 228.339076,35.9186047 C226.527731,42.6744186 222.1,48.3686047 218.577941,54.3523256 C216.162815,58.6953488 211.936345,61.6872093 208.615546,65.5476744 C209.722479,69.3116279 209.823109,73.2686047 208.917437,77.1290698 C210.527521,78.094186 212.238235,79.0593023 213.647059,80.3139535 C211.735084,80.5069767 210.125,79.4453488 208.514916,78.5767442 C208.313655,78.8662791 207.911134,79.6383721 207.709874,79.927907 C209.118697,81.1825581 210.728782,82.1476744 212.238235,83.4023256 C210.22563,84.1744186 208.716176,82.4372093 207.106092,81.472093 C205.797899,83.8848837 204.489706,86.2011628 202.980252,88.5174419 C218.477311,93.5360465 233.571849,100.581395 245.848739,111.004651 C231.760504,102.222093 216.162815,95.8523256 199.961345,91.7023256 C199.357563,93.0534884 199.055672,94.7906977 197.546218,95.5627907 C195.432983,96.7209302 192.816597,95.6593023 191.307143,94.1151163 C190.09958,92.8604651 190.401471,91.0267442 190.30084,89.3860465 C187.986345,88.9034884 185.671849,88.3244186 183.256723,88.0348837 C181.847899,89 180.539706,90.544186 178.527101,90.2546512 C175.910714,90.6406977 173.898109,88.7104651 173.394958,86.4906977 C167.457773,85.622093 161.520588,85.1395349 155.583403,84.6569767 C155.684034,86.7802326 155.684034,89.0965116 154.17458,90.7372093 C151.860084,93.5360465 147.331723,93.3430233 144.312815,91.9918605 C141.394538,90.4476744 140.287605,87.0697674 140.287605,84.077907 C136.363025,84.1744186 132.438445,84.2709302 128.513866,84.2709302 C128.513866,87.3593023 127.507563,90.9302326 124.488655,92.5709302 C121.369118,94.0186047 116.941387,94.1151163 114.526261,91.4127907 C113.016807,89.772093 113.117437,87.455814 113.117437,85.3325581 C107.582773,85.9116279 102.048109,86.6837209 96.6140756,87.5523256 C96.8153361,89.3860465 97.3184874,91.4127907 96.2115546,93.0534884 C94.7021008,95.6593023 91.2806723,96.6244186 88.362395,96.4313953 C85.0415966,96.0453488 82.8277311,93.3430233 81.7207983,90.544186 C77.997479,91.5093023 74.2741597,92.4744186 70.5508403,93.4395349 C71.5571429,95.5627907 72.4628151,97.8790698 71.7584034,100.195349 C70.8527311,105.02093 63.3054622,108.012791 59.5821429,104.055814 C57.8714286,102.415116 57.6701681,100.002326 57.5695378,97.7825581 C48.4121849,101.353488 39.6573529,105.696512 31.5063025,110.90814 C39.5567227,103.766279 49.2172269,98.5546512 59.0789916,94.1151163 C57.2676471,91.605814 55.7581933,88.9034884 54.047479,86.2976744 C53.1418067,87.2627907 52.3367647,88.227907 51.3304622,89.1930233 C50.9279412,86.8767442 54.1481092,85.0430233 52.437395,82.8232558 C51.2298319,83.7883721 50.2235294,84.7534884 49.0159664,85.7186047 C47.8084034,83.6918605 50.4247899,82.6302326 51.5317227,81.2790698 C51.3304622,80.7965116 51.0285714,79.927907 50.9279412,79.4453488 C49.6197479,80.2174419 48.3115546,82.1476744 46.7014706,80.7 C47.9090336,79.7348837 49.1165966,78.7697674 50.3241597,77.8046512 C49.0159664,72.4965116 49.4184874,66.8988372 51.6323529,61.7837209 C50.3241597,60.3360465 48.9153361,58.6953488 46.9027311,58.2127907 C43.4813025,57.4406977 40.462395,59.6604651 37.8460084,61.3976744 C41.5693277,60.722093 45.1920168,62.6523256 46.6008403,66.0302326 C46.6008403,63.9069767 47.1039916,61.5906977 49.3178571,60.4325581 C48.3115546,63.327907 47.9090336,66.3197674 48.1102941,69.3116279 C48.5128151,73.7511628 45.7957983,78.5767442 41.267437,79.8313953 C35.9340336,80.8930233 31.305042,75.5848837 31.4056723,70.7593023 C31.4056723,64.9686047 36.0346639,60.0465116 41.3680672,57.7302326 C45.3932773,55.8965116 50.6260504,54.8348837 54.2487395,57.9232558 C58.1733193,53.3872093 64.3117647,51.1674419 70.3495798,51.9395349 C71.0539916,49.5267442 72.6640756,47.4034884 74.9785714,46.2453488 C80.7144958,43.0604651 88.4630252,42.4813953 94.1989496,46.1488372 C98.6266807,48.9476744 100.337395,55.5104651 96.9159664,59.6604651 C94.5008403,62.4593023 90.1737395,62.2662791 87.0542017,60.9151163 C84.1359244,59.7569767 82.5258403,57.0546512 80.5132353,54.9313953 C79.205042,53.4837209 77.4943277,52.5186047 75.8842437,51.3604651 C78.4,50.877907 80.412605,52.3255814 81.8214286,54.1593023 C80.6138655,50.5883721 81.9220588,46.6313953 85.4441176,44.7976744 C82.3245798,45.1837209 78.7018908,45.2802326 76.4880252,47.6930233 C74.9785714,49.1406977 74.8779412,51.2639535 74.6766807,53.194186 C80.2113445,55.5104651 84.6390756,59.8534884 87.2554622,65.0651163 L91.3813025,65.0651163 C91.2806723,65.4511628 91.180042,66.2232558 91.180042,66.5127907 C90.0731092,66.5127907 89.0668067,66.5127907 87.9598739,66.6093023 C88.1611345,67.2848837 88.362395,67.8639535 88.5636555,68.5395349 C89.972479,68.6360465 91.3813025,68.8290698 92.7901261,69.022093 L92.6894958,70.4697674 C91.4819328,70.3732558 90.2743697,70.2767442 89.0668067,70.0837209 C89.167437,70.5662791 89.4693277,71.627907 89.6705882,72.1104651 C91.0794118,72.6895349 92.6894958,73.172093 93.6957983,74.3302326 C92.7901261,74.2337209 90.9787815,73.944186 90.0731092,73.8476744 C90.6768908,76.8395349 91.0794118,79.8313953 91.7838235,82.8232558 C89.972479,83.2093023 88.0605042,83.2093023 86.2491597,83.305814 C83.1296218,85.8151163 83.2302521,90.1581395 85.0415966,93.3430233 C85.3434874,92.0883721 85.6453782,90.8337209 85.9472689,89.4825581 C86.3497899,89.4825581 87.2554622,89.3860465 87.6579832,89.3860465 C87.1548319,91.3162791 87.0542017,93.3430233 87.6579832,95.3697674 C88.9661765,95.3697674 90.2743697,95.2732558 91.582563,95.0802326 C91.8844538,93.2465116 91.582563,91.5093023 91.4819328,89.6755814 C93.8970588,89.1930233 93.2932773,92.1848837 93.9976891,93.4395349 C96.1109244,90.544186 95.5071429,85.8151163 91.7838235,84.4639535 C91.985084,83.9813953 91.8844538,83.0162791 92.6894958,83.1127907 C99.1298319,82.4372093 105.368908,80.8930233 111.809244,80.3139535 C111.004202,76.8395349 110.29979,73.3651163 109.696008,69.8906977 C107.784034,70.6627907 105.670798,72.1104651 103.859454,70.3732558 C105.670798,69.4081395 107.482143,68.5395349 109.394118,67.7674419 C109.293487,66.705814 109.092227,65.644186 108.991597,64.5825581 C106.27458,64.9686047 102.953782,67.3813953 100.639286,64.7755814 C103.356303,63.7139535 106.073319,63.0383721 108.890966,62.3627907 C108.890966,61.5906977 108.790336,60.1430233 108.790336,59.3709302 C105.972689,59.6604651 102.853151,61.3976744 100.438025,59.177907 C103.155042,58.1162791 106.073319,57.7302326 108.991597,57.2476744 C109.192857,56.1860465 109.293487,55.027907 109.494748,53.8697674 C104.060714,46.5348837 103.859454,36.8837209 105.771429,28.3906977 C111.406723,30.3209302 117.142647,32.3476744 122.878571,34.0848837 C124.589286,33.2162791 126.40063,32.3476744 128.211975,31.7686047 C134.551681,29.8383721 141.394538,30.9965116 147.130462,34.0848837 C147.734244,33.8918605 149.042437,33.505814 149.646218,33.3127907 C154.476471,31.7686047 159.306723,30.127907 164.036345,28.4872093 C166.04895,36.9802326 165.646429,46.4383721 160.514286,53.9662791 C160.715546,55.1244186 160.816176,56.1860465 161.017437,57.344186 C163.935714,57.8267442 166.853992,58.1162791 169.571008,59.2744186 C167.055252,61.3976744 163.835084,59.6604651 161.017437,59.3709302 L161.017437,62.3627907 C163.734454,63.0383721 166.552101,63.6174419 169.067857,64.6790698 C167.256513,67.5744186 163.633824,64.6790698 160.916807,64.5825581 C160.715546,65.644186 160.614916,66.6093023 160.413655,67.6709302 C162.426261,68.5395349 164.539496,69.3116279 166.14958,70.855814 C164.036345,72.0139535 162.023739,70.6627907 160.212395,69.8906977 C159.709244,73.172093 159.004832,76.3569767 158.30042,79.5418605 C163.935714,80.0244186 169.470378,80.7 175.005042,81.5686047 C175.407563,77.9011628 176.011345,74.1372093 176.917017,70.5662791 C175.105672,70.3732558 172.992437,70.4697674 171.684244,69.022093 C173.797479,68.3465116 177.319538,70.4697674 178.22521,67.5744186 C176.413866,67.0918605 174.09937,67.2848837 172.992437,65.5476744 C174.803782,65.644186 176.715756,65.9337209 178.527101,66.1267442 C180.439076,62.4593023 183.357353,59.2744186 187.080672,57.0546512 C187.080672,52.2290698 185.973739,47.4034884 186.980042,42.577907 C187.785084,36.4011628 188.288235,29.5488372 191.206513,23.372093 L191.206513,23.372093 Z M192.112185,25.1093023 C189.898319,30.8034884 188.992647,36.8837209 188.388866,42.8674419 C188.086975,47.3069767 187.684454,52.0360465 189.99895,56.0895349 C190.904622,55.8 191.810294,55.5104651 192.615336,55.2209302 L192.414076,54.8348837 C195.332353,51.4569767 196.640546,47.1139535 197.344958,42.8674419 C198.25063,37.3662791 198.854412,31.672093 198.753782,26.0744186 C198.854412,23.9511628 197.143697,22.5034884 195.332353,21.827907 C194.02416,22.6965116 192.615336,23.5651163 192.112185,25.1093023 L192.112185,25.1093023 Z M106.777731,31.3825581 C105.972689,37.1732558 106.37521,43.5430233 110.29979,48.272093 C111.306092,48.1755814 111.306092,46.9209302 111.809244,46.2453488 C113.721218,42.1918605 116.740126,38.7174419 120.262185,35.822093 C115.834454,34.4709302 111.306092,32.8302326 106.777731,31.3825581 L106.777731,31.3825581 Z M151.155672,35.05 C150.652521,35.2430233 149.646218,35.6290698 149.143067,35.822093 C152.866387,39.4895349 156.489076,43.4465116 158.30042,48.3686047 C158.702941,48.0790698 159.004832,47.7895349 159.407353,47.5965116 C162.526891,42.7709302 163.130672,36.8837209 162.225,31.3825581 C158.501681,32.5406977 154.878992,33.8918605 151.155672,35.05 L151.155672,35.05 Z M217.97416,36.8837209 C212.741387,44.0255814 206.09979,51.5534884 206.30105,60.8186047 L206.20042,60.8186047 C206.401681,61.1081395 206.703571,61.7837209 206.904832,62.1697674 C211.332563,61.0116279 214.15021,57.344186 216.766597,53.9662791 C220.590546,48.8511628 224.112605,43.4465116 226.427101,37.5593023 C226.829622,36.1116279 227.634664,33.6023256 225.823319,32.7337209 L225.420798,32.8302326 L225.219538,32.2511628 C221.898739,31.2860465 219.684874,34.7604651 217.97416,36.8837209 L217.97416,36.8837209 Z M119.457143,39.2 C114.22437,43.9290698 111.406723,50.6848837 110.50105,57.4406977 C111.607983,57.344186 112.714916,57.2476744 113.821849,57.1511628 C117.142647,57.1511628 120.362815,57.4406977 123.582983,58.405814 C120.362815,58.405814 117.142647,58.405814 114.023109,58.8883721 C112.815546,59.0813953 111.607983,59.2744186 110.50105,59.4674419 L110.50105,62.3627907 C111.809244,62.1697674 113.016807,61.9767442 114.325,61.7837209 C117.444538,61.5906977 120.564076,61.6872093 123.683613,62.4593023 C120.664706,62.8453488 117.645798,62.9418605 114.727521,63.5209302 C113.419328,63.8104651 112.010504,64.1 110.702311,64.4860465 C110.903571,65.4511628 111.004202,66.4162791 111.205462,67.2848837 C112.614286,66.8988372 114.023109,66.5127907 115.431933,66.1267442 L115.431933,65.9337209 C117.947689,65.5476744 120.564076,65.3546512 123.079832,65.5476744 C120.765336,66.4162791 118.24958,66.8988372 115.935084,67.6709302 L115.935084,67.6709302 C114.526261,68.25 113.117437,68.7325581 111.708613,69.3116279 C112.714916,72.4 114.023109,75.2953488 115.834454,77.9976744 C116.337605,79.0593023 117.444538,79.6383721 118.551471,79.927907 C118.45084,79.4453488 118.35021,78.4802326 118.35021,77.9976744 C119.960294,78.094186 121.671008,78.1906977 123.381723,78.2872093 C124.991807,79.7348837 127.306303,79.155814 129.318908,79.155814 C133.344118,78.9627907 137.369328,78.9627907 141.293908,78.9627907 C143.507773,78.9627907 145.419748,77.7081395 147.532983,77.4186047 C148.740546,77.322093 150.652521,77.0325581 150.954412,78.7697674 C151.356933,78.8662791 152.161975,79.155814 152.463866,79.3488372 C154.07395,77.2255814 155.482773,74.9093023 156.489076,72.4965116 C156.992227,71.5313953 157.294118,70.4697674 157.596008,69.4081395 C154.07395,67.1883721 149.847479,66.705814 145.922899,65.4511628 C150.048739,65.0651163 154.17458,65.8372093 158.09916,67.0918605 C158.30042,66.1267442 158.40105,65.2581395 158.602311,64.2930233 C154.37584,63.1348837 150.048739,62.7488372 145.721639,62.2662791 C150.048739,61.2046512 154.476471,61.5906977 158.803571,62.1697674 C158.702941,61.494186 158.602311,60.0465116 158.602311,59.3709302 C154.476471,58.2127907 150.14937,58.2127907 145.822269,58.2127907 C149.948109,56.8616279 154.37584,56.8616279 158.602311,57.1511628 C157.897899,52.422093 156.489076,47.6930233 153.671429,43.7360465 C150.048739,38.2348837 144.010924,33.8918605 137.168067,33.1197674 C130.727731,32.444186 124.086134,34.8569767 119.457143,39.2 L119.457143,39.2 Z M54.3493697,60.4325581 C52.6386555,63.1348837 51.5317227,66.2232558 51.1292017,69.4081395 C50.9279412,72.0139535 51.2298319,74.7162791 51.7329832,77.322093 C52.6386555,77.2255814 54.45,77.1290698 55.3556723,77.1290698 C53.9468487,77.9976744 51.5317227,78.5767442 52.7392857,80.6034884 C54.047479,80.2174419 55.4563025,79.927907 56.7644958,79.6383721 C55.5569328,80.7965116 52.9405462,81.472093 54.047479,83.5953488 C55.1544118,83.1127907 56.3619748,82.5337209 57.4689076,82.1476744 C56.6638655,83.0162791 55.8588235,83.8848837 55.0537815,84.7534884 C56.7644958,87.2627907 58.7771008,89.6755814 61.4941176,91.2197674 C64.1105042,91.2197674 66.9281513,91.5093023 69.3432773,90.4476744 C73.4691176,89 77.594958,87.7453488 81.8214286,86.4906977 C83.0289916,84.2709302 85.1422269,82.7267442 87.5573529,81.7616279 C88.1611345,79.0593023 88.362395,76.1639535 88.0605042,73.3651163 C86.9535714,73.2686047 85.9472689,73.172093 84.8403361,73.0755814 L84.8403361,72.4 C85.8466387,72.3034884 86.8529412,72.2069767 87.9598739,72.1104651 C87.7586134,71.627907 87.4567227,70.7593023 87.3560924,70.2767442 C86.0478992,70.3732558 84.6390756,70.4697674 83.3308824,70.5662791 C84.5384454,69.794186 85.7460084,69.3116279 87.0542017,68.7325581 C86.8529412,68.3465116 86.4504202,67.477907 86.3497899,67.0918605 C84.9409664,67.477907 83.5321429,67.7674419 82.1233193,68.0569767 C83.2302521,67.1883721 84.4378151,66.3197674 85.7460084,65.5476744 C82.5258403,59.6604651 76.6892857,54.6418605 69.6451681,53.8697674 C63.5067227,52.9046512 57.6701681,55.8965116 54.3493697,60.4325581 L54.3493697,60.4325581 Z M179.332143,66.6093023 C181.948529,67.3813953 184.564916,68.3465116 186.879412,69.9872093 C184.263025,69.1186047 181.646639,68.3465116 178.828992,67.8639535 C178.627731,68.25 178.32584,69.1186047 178.12458,69.5046512 C180.942227,70.0837209 183.659244,70.855814 186.07437,72.4 C183.357353,71.8209302 180.539706,71.1453488 177.722059,70.855814 C177.017647,74.1372093 177.118277,77.6116279 177.822689,80.8930233 C180.237815,80.3139535 182.25042,81.7616279 183.659244,83.4988372 C189.093277,85.1395349 194.929832,85.4290698 200.162605,87.7453488 C202.577731,85.8151163 204.590336,83.4988372 206.09979,80.7965116 C203.684664,79.2523256 201.168908,78.094186 198.653151,76.8395349 C201.470798,77.2255814 204.187815,78.1906977 206.703571,79.5418605 C206.904832,78.9627907 207.106092,78.3837209 207.307353,77.8046512 C204.992857,76.55 202.477101,75.5848837 200.061975,74.4267442 C202.778992,74.7162791 205.294748,75.5848837 207.810504,76.55 C208.615546,72.1104651 208.514916,67.2848837 206.09979,63.2313953 C203.483403,58.5988372 197.646849,55.6069767 192.112185,56.7651163 C186.476891,57.8267442 181.948529,61.8802326 179.332143,66.6093023 L179.332143,66.6093023 Z M143.608403,81.2790698 C141.998319,83.2093023 142.09895,85.8151163 142.19958,88.1313953 C143.306513,86.7802326 143.910294,84.2709302 146.32542,84.85 C145.520378,86.6837209 144.212185,88.4209302 144.111555,90.4476744 C144.614706,91.7988372 146.526681,91.7023256 147.734244,92.2813953 C148.941807,90.7372093 149.243697,88.8069767 149.847479,86.9732558 C152.564496,86.9732558 150.652521,90.0616279 150.954412,91.5093023 C152.564496,89.9651163 154.27521,88.1313953 153.872689,85.7186047 C153.772059,82.6302326 151.558193,80.2174419 149.042437,78.4802326 C147.130462,79.0593023 144.815966,79.4453488 143.608403,81.2790698 L143.608403,81.2790698 Z M117.746429,92.1848837 C117.847059,90.544186 116.438235,88.0348837 118.853361,87.3593023 C119.557773,89.0965116 119.255882,91.7023256 121.167857,92.6674419 C122.37542,92.5709302 123.884874,92.2813953 124.589286,91.2197674 C124.589286,89.0965116 123.281092,87.3593023 122.37542,85.622093 C124.891176,84.85 125.394328,87.455814 126.501261,88.9034884 C126.601891,86.4906977 126.803151,83.8848837 125.092437,81.8581395 C123.784244,79.8313953 121.067227,79.3488372 118.853361,79.927907 C114.123739,82.1476744 113.318697,89.1930233 117.746429,92.1848837 L117.746429,92.1848837 Z M175.508193,88.4209302 C176.011345,87.5523256 176.615126,86.5872093 177.218908,85.7186047 C177.722059,87.0697674 176.313235,90.0616279 178.627731,89.8686047 C181.143487,90.0616279 179.734664,86.8767442 180.137185,85.5255814 C180.539706,86.2011628 181.445378,87.6488372 181.948529,88.3244186 C183.457983,85.5255814 182.35105,82.3406977 179.432773,80.9895349 C176.615126,82.4372093 173.898109,85.2360465 175.508193,88.4209302 L175.508193,88.4209302 Z M191.105882,91.1232558 C192.112185,90.7372093 193.219118,90.4476744 194.22542,90.0616279 C193.319748,91.2197674 192.414076,92.377907 191.508403,93.5360465 C192.011555,93.922093 193.118487,94.694186 193.722269,95.0802326 C194.627941,94.0186047 195.432983,92.9569767 196.338655,91.9918605 C196.439286,93.15 196.137395,94.2116279 195.835504,95.3697674 C197.646849,94.3081395 199.156303,92.5709302 198.753782,90.4476744 C198.854412,88.4209302 196.539916,86.6837209 194.527311,87.2627907 C192.615336,87.6488372 191.910924,89.5790698 191.105882,91.1232558 L191.105882,91.1232558 Z M60.8903361,92.8604651 C59.4815126,95.3697674 58.4752101,98.3616279 59.5821429,101.160465 C60.1859244,103.187209 62.2991597,104.152326 64.1105042,105.02093 C63.6073529,103.476744 61.5947479,101.739535 63.4060924,100.29186 C64.412395,101.836047 65.5193277,103.380233 66.9281513,104.634884 C67.9344538,104.055814 68.9407563,103.380233 69.8464286,102.60814 C69.8464286,100.388372 67.5319328,99.1337209 66.1231092,97.7825581 C67.8338235,96.1418605 69.3432773,98.2651163 70.8527311,99.0372093 C70.0476891,96.9139535 69.2426471,94.5011628 67.0287815,93.3430233 C65.217437,91.9918605 62.9029412,92.1848837 60.8903361,92.8604651 L60.8903361,92.8604651 Z" id="Animal-Fill" fill="#ffffff" sketch:type="MSShapeGroup"></path>
        <g id="cat" sketch:type="MSLayerGroup" transform="translate(114.000000, 30.000000)">
            <path d="M27.9983193,19.044186 C28.5014706,17.6930233 30.2121849,17.3069767 31.4197479,16.6313953 C32.3254202,17.4034884 33.3317227,18.1755814 34.237395,18.9476744 C33.7342437,20.2988372 33.7342437,22.3255814 31.9228992,22.7116279 C29.8096639,23.0976744 27.3945378,21.1674419 27.9983193,19.044186 L27.9983193,19.044186 Z" id="cat-right-eye" fill="#ffffff" sketch:type="MSShapeGroup"></path>
            <path d="M15.7214286,27.8267442 C18.4384454,26.9581395 21.3567227,27.1511628 24.0737395,27.9232558 C23.1680672,29.4674419 22.0611345,30.722093 20.9542017,32.1697674 C21.8598739,34.1965116 24.8787815,33.4244186 26.6901261,33.5209302 C25.080042,36.1267442 22.1617647,34.6790698 19.8472689,34.1 C17.6334034,34.6790698 14.7151261,35.7406977 13.2056723,33.2313953 C15.1176471,33.1348837 17.2308824,33.2313953 18.9415966,32.2662791 C17.6334034,30.9151163 16.3252101,29.5639535 15.7214286,27.8267442 L15.7214286,27.8267442 Z" id="cat-nose" fill="#ffffff" sketch:type="MSShapeGroup"></path>
            <path d="M7.16785714,19.044186 C7.6710084,17.6930233 9.38172269,17.3069767 10.5892857,16.6313953 C11.494958,17.4034884 12.5012605,18.1755814 13.507563,18.9476744 C12.9037815,20.2988372 12.9037815,22.2290698 11.1930672,22.7116279 C8.97920168,23.0976744 6.66470588,21.1674419 7.16785714,19.044186 L7.16785714,19.044186 Z" id="cat-left-eye" fill="#ffffff" sketch:type="MSShapeGroup"></path>
            <path d="M13.8094538,2.15465116 C20.5516807,-1.22325581 29.1052521,-0.644186047 35.1430672,3.69883721 C34.5392857,3.89186047 33.2310924,4.27790698 32.6273109,4.47093023 C26.9920168,1.38255814 20.1491597,0.320930233 13.8094538,2.15465116 L13.8094538,2.15465116 Z" id="Shape" fill="#49C8F4" sketch:type="MSShapeGroup"></path>
            <path d="M5.45714286,9.2 C10.0861345,4.85697674 16.7277311,2.44418605 23.1680672,3.3127907 C30.0109244,4.18139535 36.0487395,8.42790698 39.6714286,13.9290698 C42.4890756,17.9825581 43.8978992,22.6151163 44.6023109,27.344186 C40.2752101,27.0546512 35.9481092,27.0546512 31.8222689,28.405814 C36.0487395,28.405814 40.4764706,28.405814 44.6023109,29.5639535 C44.7029412,30.2395349 44.8035714,31.6872093 44.8035714,32.3627907 C40.4764706,31.7837209 35.9481092,31.3976744 31.7216387,32.4593023 C36.0487395,32.9418605 40.3758403,33.327907 44.6023109,34.4860465 C44.4010504,35.4511628 44.1997899,36.3197674 44.0991597,37.2848837 C40.1745798,36.0302326 36.0487395,35.2581395 31.9228992,35.644186 C35.847479,36.8023256 40.0739496,37.3813953 43.5960084,39.6011628 C43.2941176,40.6627907 42.9922269,41.7244186 42.4890756,42.6895349 C40.8789916,45.005814 38.9670168,47.0325581 36.9544118,49.0593023 C36.7531513,47.322093 34.8411765,47.6116279 33.5329832,47.7081395 C31.4197479,47.9976744 29.5077731,49.2523256 27.2939076,49.2523256 C23.2686975,49.2523256 19.2434874,49.2523256 15.3189076,49.4453488 C13.3063025,49.4453488 10.9918067,49.927907 9.38172269,48.5767442 C6.06092437,45.5848837 3.74642857,41.8209302 1.93508403,37.8639535 C4.35021008,37.0918605 6.76533613,36.5127907 9.07983193,35.7406977 C6.46344538,35.5476744 3.94768908,35.8372093 1.43193277,36.1267442 C1.23067227,35.3546512 1.02941176,34.4860465 0.828151261,33.7139535 C3.74642857,33.1348837 6.76533613,33.0383721 9.7842437,32.6523256 C6.76533613,31.8802326 3.54516807,31.8802326 0.425630252,31.9767442 C0.325,31.0116279 0.224369748,30.0465116 0.123739496,28.9848837 C3.24327731,28.5023256 6.46344538,28.5023256 9.68361345,28.5023256 C6.56407563,27.5372093 3.24327731,27.2476744 -0.0775210084,27.2476744 C-0.0775210084,20.7813953 1.83445378,14.5081395 5.45714286,9.2 L5.45714286,9.2 Z M7.16785714,19.044186 C6.66470588,21.1674419 8.97920168,23.0976744 11.1930672,22.7116279 C12.9037815,22.2290698 12.9037815,20.2988372 13.507563,18.9476744 C12.5012605,18.1755814 11.5955882,17.4034884 10.5892857,16.6313953 C9.38172269,17.3069767 7.6710084,17.6930233 7.16785714,19.044186 L7.16785714,19.044186 Z M27.9983193,19.044186 C27.4951681,21.1674419 29.8096639,23.0976744 31.9228992,22.8081395 C33.7342437,22.422093 33.7342437,20.3953488 34.237395,19.044186 C33.2310924,18.272093 32.3254202,17.5 31.4197479,16.727907 C30.1115546,17.3069767 28.5014706,17.6930233 27.9983193,19.044186 L27.9983193,19.044186 Z M15.7214286,27.8267442 C16.4258403,29.5639535 17.7340336,30.9151163 18.9415966,32.3627907 C17.1302521,33.327907 15.1176471,33.2313953 13.2056723,33.327907 C14.7151261,35.8372093 17.5327731,34.7755814 19.8472689,34.1965116 C22.1617647,34.7755814 25.080042,36.2232558 26.6901261,33.6174419 C24.8787815,33.4244186 21.9605042,34.2930233 20.9542017,32.2662791 C22.0611345,30.9151163 23.1680672,29.5639535 24.0737395,28.0197674 C21.2560924,27.1511628 18.4384454,26.9581395 15.7214286,27.8267442 L15.7214286,27.8267442 Z" id="Shape" fill="#49C8F4" sketch:type="MSShapeGroup"></path>
            <path d="M35.042437,5.82209302 C35.5455882,5.62906977 36.5518908,5.24302326 37.055042,5.05 C40.7783613,8.5244186 43.4953782,12.8674419 45.3067227,17.5965116 C44.9042017,17.8860465 44.6023109,18.0790698 44.1997899,18.3686047 C42.3884454,13.4465116 38.7657563,9.48953488 35.042437,5.82209302 L35.042437,5.82209302 Z" id="Shape" fill="#49C8F4" sketch:type="MSShapeGroup"></path>
        </g>
        <g id="bunny" sketch:type="MSLayerGroup" transform="translate(187.000000, 21.000000)">
            <path d="M1.6907563,42.4244186 C3.50210084,42.0383721 4.81029412,44.9337209 2.89831933,45.8023256 C0.583823529,47.3465116 -1.52941176,42.4244186 1.6907563,42.4244186 L1.6907563,42.4244186 Z" id="bunny-left-eye" fill="#ffffff" sketch:type="MSShapeGroup"></path>
            <path d="M12.9613445,49.6627907 C11.2506303,48.022093 13.162605,46.477907 14.9739496,46.477907 C15.3764706,46.9604651 16.0808824,48.1186047 16.4834034,48.6011628 C15.6783613,49.6627907 14.1689076,51.3034884 12.9613445,49.6627907 L12.9613445,49.6627907 Z" id="bunny-right-eye" fill="#ffffff" sketch:type="MSShapeGroup"></path>
            <path d="M3.30084034,49.9523256 C5.21281513,50.0488372 6.92352941,50.7244186 8.43298319,51.7860465 C7.32605042,52.5581395 6.21911765,53.2337209 5.11218487,54.005814 C6.21911765,54.5848837 7.42668067,55.1639535 8.6342437,55.7430233 C7.02415966,56.6116279 5.61533613,55.4534884 4.30714286,54.4883721 C2.69705882,54.5848837 1.28823529,54.005814 0.382563025,52.6546512 C1.6907563,52.944186 2.99894958,53.1372093 4.30714286,53.4267442 C3.90462185,52.3651163 3.60273109,51.1104651 3.30084034,49.9523256 L3.30084034,49.9523256 Z" id="bunny-nose" fill="#ffffff" sketch:type="MSShapeGroup"></path>
            <path d="M23.125,19.9372093 C25.7413866,15.7872093 28.7602941,11.444186 33.1880252,8.93488372 C34.7981092,7.87325581 36.8107143,8.45232558 37.7163866,10.0930233 C32.4836134,10.0930233 29.7665966,14.822093 27.0495798,18.3930233 C23.125,23.7976744 18.9991597,29.2988372 17.6909664,35.8616279 C17.6909664,30.1674419 20.3073529,24.8593023 23.125,19.9372093 L23.125,19.9372093 Z" id="Shape" fill="#49C8F4" sketch:type="MSShapeGroup"></path>
            <path d="M9.33865546,0.152325581 C10.5462185,0.152325581 11.955042,-0.137209302 12.6594538,0.924418605 C14.9739496,3.81976744 15.2758403,7.58372093 15.4771008,11.0581395 C15.6783613,19.0686047 14.5714286,27.4651163 9.74117647,34.2209302 C9.23802521,34.2209302 8.13109244,34.3174419 7.62794118,34.3174419 L7.12478992,34.3174419 C11.0493697,29.2023256 11.955042,22.7360465 12.6594538,16.5593023 C12.9613445,12.505814 13.6657563,8.35581395 12.8607143,4.30232558 C12.5588235,2.46860465 10.9487395,1.21395349 9.33865546,0.152325581 L9.33865546,0.152325581 Z" id="Shape" fill="#49C8F4" sketch:type="MSShapeGroup"></path>
            <path d="M30.9741597,15.8837209 C32.6848739,13.7604651 34.8987395,10.2860465 38.1189076,11.3476744 L38.3201681,11.9267442 C37.6157563,20.0337209 33.6911765,27.6581395 28.4584034,34.027907 C26.1439076,36.8267442 23.125,39.4325581 19.3010504,39.9151163 C19.0997899,30.5534884 25.6407563,23.0255814 30.9741597,15.8837209 L30.9741597,15.8837209 Z" id="Shape" fill="#49C8F4" sketch:type="MSShapeGroup"></path>
            <path d="M8.33235294,0.827906977 C10.2443277,1.50348837 11.955042,2.95116279 11.7537815,5.0744186 C11.8544118,10.672093 11.2506303,16.3662791 10.344958,21.8674419 C9.53991597,26.1139535 8.23172269,30.4569767 5.41407563,33.8348837 C4.10588235,30.7465116 3.09957983,27.5616279 2.99894958,24.2802326 C2.59642857,16.1732558 3.70336134,7.77674419 8.33235294,0.827906977 L8.33235294,0.827906977 Z" id="Shape" fill="#49C8F4" sketch:type="MSShapeGroup"></path>
        </g>
        <g id="dog" sketch:type="MSLayerGroup" transform="translate(51.000000, 59.000000)">
            <path d="M21.7647059,6.45116279 C19.5508403,5.58255814 20.9596639,3.3627907 22.1672269,2.30116279 C23.0728992,2.6872093 24.0792017,2.97674419 25.0855042,3.3627907 C25.6892857,5.38953488 24.0792017,7.89883721 21.7647059,6.45116279 L21.7647059,6.45116279 Z" id="dog-right-eye" fill="#ffffff" sketch:type="MSShapeGroup"></path>
            <path d="M14.1168067,14.0755814 C15.827521,12.7244186 18.0413866,12.1453488 20.2552521,12.0488372 C19.8527311,13.4965116 19.4502101,14.944186 18.9470588,16.2953488 C20.5571429,16.1988372 22.0665966,15.8127907 23.6766807,15.5232558 C22.7710084,17.4534884 20.5571429,17.55 18.6451681,17.55 C17.3369748,18.9011628 15.6262605,19.4802326 13.7142857,18.9976744 C15.022479,18.1290698 16.4313025,17.3569767 17.7394958,16.5848837 C16.5319328,15.8127907 15.3243697,14.944186 14.1168067,14.0755814 L14.1168067,14.0755814 Z" id="dog-nose" fill="#ffffff" sketch:type="MSShapeGroup"></path>
            <path d="M7.87773109,11.855814 C5.06008403,11.3732558 5.9657563,8.76744186 7.57584034,7.41627907 C8.58214286,7.80232558 9.58844538,8.09186047 10.4941176,8.38139535 C10.5947479,10.022093 10.1922269,12.5313953 7.87773109,11.855814 L7.87773109,11.855814 Z" id="dog-left-eye" fill="#ffffff" sketch:type="MSShapeGroup"></path>
            <path d="M3.34936975,1.43255814 C5.56323529,0.177906977 8.48151261,-0.497674419 10.6953782,1.23953488 C15.5256303,4.81046512 15.7268908,12.4348837 11.7016807,16.6813953 C9.68907563,18.9011628 5.86512605,19.1906977 3.6512605,17.2604651 C1.53802521,15.5232558 0.833613445,12.9174419 0.129201681,10.5046512 C0.531722689,7.31976744 1.63865546,4.23139535 3.34936975,1.43255814 L3.34936975,1.43255814 Z M7.87773109,11.855814 C10.2928571,12.627907 10.5947479,10.022093 10.4941176,8.47790698 C9.48781513,8.18837209 8.48151261,7.80232558 7.57584034,7.5127907 C5.86512605,8.67093023 5.06008403,11.3732558 7.87773109,11.855814 L7.87773109,11.855814 Z" id="Shape" fill="#49C8F4" sketch:type="MSShapeGroup"></path>
        </g>
        <g id="heart" sketch:type="MSLayerGroup" transform="translate(71.000000, 6.000000)">
            <path d="M9.51323529,18.0476744 C12.6327731,15.055814 16.0542017,12.45 18.972479,9.16860465 C18.167437,13.6081395 14.6453782,18.144186 9.51323529,18.0476744 L9.51323529,18.0476744 Z" id="Shape" fill="#49C8F4" sketch:type="MSShapeGroup"></path>
            <path d="M6.19243697,4.8255814 C7.80252101,2.89534884 9.7144958,1.25465116 12.3308824,0.868604651 C9.61386555,2.89534884 7.09810924,5.69418605 7.6012605,9.26511628 C9.11071429,7.6244186 9.61386555,5.50116279 10.9220588,3.86046512 C12.2302521,2.21976744 14.4441176,1.64069767 16.3560924,1.25465116 C17.2617647,2.79883721 18.2680672,4.24651163 19.1737395,5.79069767 C16.7586134,10.4232558 12.2302521,13.3186047 8.60756303,16.8895349 C7.1987395,15.827907 5.78991597,14.8627907 4.38109244,13.8011628 C4.38109244,11.2918605 4.28046218,8.68604651 5.48802521,6.36976744 C5.89054622,6.36976744 6.59495798,6.27325581 6.99747899,6.27325581 C6.69558824,5.8872093 6.29306723,5.21162791 6.19243697,4.8255814 L6.19243697,4.8255814 Z" id="Shape" fill="#49C8F4" sketch:type="MSShapeGroup"></path>
            <path d="M12.2302521,0.965116279 C14.4441176,-0.0965116279 17.6642857,-0.965116279 19.5762605,1.25465116 C21.7901261,3.57093023 20.7838235,7.04534884 18.972479,9.26511628 C16.1548319,12.45 12.6327731,15.1523256 9.51323529,18.144186 C8.80882353,18.7232558 8.10441176,18.7232558 7.50063025,18.144186 C5.18613445,16.6965116 2.87163866,15.055814 1.16092437,12.9325581 C-0.449159664,10.905814 -1.15357143,7.72093023 0.557142857,5.50116279 C1.96596639,3.95697674 4.38109244,4.53604651 6.19243697,4.92209302 C6.39369748,5.30813953 6.79621849,5.98372093 6.99747899,6.27325581 C6.59495798,6.27325581 5.89054622,6.36976744 5.48802521,6.36976744 C4.07920168,6.08023256 2.26785714,5.69418605 1.56344538,7.23837209 C0.355882353,9.74767442 2.7710084,12.0639535 4.38109244,13.8011628 C5.78991597,14.8627907 7.1987395,15.9244186 8.60756303,16.8895349 C12.3308824,13.3186047 16.7586134,10.3267442 19.1737395,5.79069767 C19.2743697,3.76395349 18.2680672,2.12325581 16.3560924,1.25465116 C14.3434874,1.7372093 12.2302521,2.31627907 10.9220588,3.86046512 C9.61386555,5.59767442 9.01008403,7.72093023 7.6012605,9.26511628 C7.09810924,5.69418605 9.61386555,2.89534884 12.2302521,0.965116279 L12.2302521,0.965116279 Z" id="Shape" fill="#ffffff" sketch:type="MSShapeGroup"></path>
        </g>
    </g>
</svg>