<?xml version="1.0" encoding="UTF-8" standalone="no"?>
<svg width="160px" height="57px" viewBox="0 0 160 57" version="1.1" xmlns="http://www.w3.org/2000/svg" xmlns:xlink="http://www.w3.org/1999/xlink" xmlns:sketch="http://www.bohemiancoding.com/sketch/ns">
    <!-- Generator: Sketch 3.1 (8751) - http://www.bohemiancoding.com/sketch -->
    <title>Next_Door_header_logo</title>
    <desc>Created with Sketch.</desc>
    <defs></defs>
    <g id="Page-1" stroke="none" stroke-width="1" fill="none" fill-rule="evenodd" sketch:type="MSPage">
        <g id="LLC-+-next-door-+-Pet-Sitters" sketch:type="MSLayerGroup" transform="translate(0.000000, 43.000000)">
            <path d="M154.375166,13.3313685 L154.375166,12.7887618 L159.700265,12.7887618 L159.700265,10.7601216 L160.420429,10.7601216 L160.420429,13.3313685 L154.375166,13.3313685 Z M154.375166,9.90027407 L154.375166,9.35766737 L159.700265,9.35766737 L159.700265,7.32902725 L160.420429,7.32902725 L160.420429,9.90027407 L154.375166,9.90027407 Z M154.815885,3.56815553 C155.219179,3.28821633 155.677336,3.13279788 156.19037,3.1018955 L156.19037,3.63086886 C155.800793,3.69085583 155.492155,3.81037353 155.264444,3.98942555 C155.036734,4.16847757 154.922881,4.41978285 154.922881,4.74334893 C154.922881,5.1378087 155.132069,5.45637109 155.550452,5.69904565 C155.968836,5.94172021 156.610118,6.06305567 157.474319,6.06305567 C158.182141,6.06305567 158.756209,5.95353565 159.19654,5.73449232 C159.636871,5.51544899 159.857034,5.18870668 159.857034,4.7542556 C159.857034,4.35434246 159.625212,4.04986771 159.161561,3.84082221 C158.91739,3.7299372 158.596405,3.64722914 158.198599,3.59269553 L158.198599,3.06372217 C158.83509,3.11098463 159.368692,3.26731196 159.79942,3.53270886 C160.317941,3.85082158 160.577198,4.27981287 160.577198,4.8196956 C160.577198,5.28504906 160.36458,5.6758674 159.939338,5.99216233 C159.376921,6.40843555 158.508618,6.61656904 157.334402,6.61656904 C156.442766,6.61656904 155.711635,6.4602417 155.140988,6.14758234 C154.520958,5.80947397 154.210947,5.3432186 154.210947,4.74880226 C154.210947,4.2416397 154.412591,3.84809472 154.815885,3.56815553 L154.815885,3.56815553 Z" id="LLC" fill="#565656" sketch:type="MSShapeGroup"></path>
            <g id="next-door" transform="translate(-0.275295, 0.000000)" fill="#38B8ED" sketch:type="MSShapeGroup">
                <path d="M8.99435637,12.3804021 C8.99435637,12.5389146 8.96829728,12.6657246 8.91617911,12.7925347 C8.86406094,12.9193447 8.81194276,13.0144522 8.7337655,13.1095597 C8.65558824,13.2046673 8.57741098,13.2363698 8.47317463,13.2997748 C8.36893829,13.3314773 8.26470194,13.3631798 8.16046559,13.3631798 L7.22233847,13.3631798 C7.01386577,13.3631798 6.85751125,13.3314773 6.72721582,13.2997748 C6.59692038,13.2363698 6.44056586,13.1729647 6.33632952,13.0461547 C6.20603408,12.9193447 6.10179774,12.7608321 5.99756139,12.5389146 C5.89332504,12.316997 5.76302961,12.0316745 5.60667509,11.7146494 L2.89653006,5.53266047 C2.74017554,5.15223038 2.58382102,4.77180029 2.4274665,4.32796519 C2.27111198,3.9158326 2.11475746,3.5037 1.98446202,3.0915674 L1.95840294,3.0915674 C1.98446202,3.56710501 1.98446202,4.07434513 2.01052111,4.54988274 C2.01052111,5.02542035 2.0365802,5.53266047 2.0365802,6.0716031 L2.0365802,12.9827497 C2.0365802,13.0461547 2.01052111,13.1095597 1.98446202,13.1729647 C1.95840294,13.2363698 1.90628476,13.2680723 1.8281075,13.2997748 C1.74993024,13.3314773 1.64569389,13.3631798 1.51539846,13.3948823 C1.38510303,13.4265848 1.22874851,13.4265848 1.02027581,13.4265848 C0.811803117,13.4265848 0.655448596,13.4265848 0.525153162,13.3948823 C0.394857728,13.3631798 0.290621381,13.3314773 0.212444121,13.2997748 C0.134266861,13.2680723 0.082148687,13.2046673 0.0560896002,13.1729647 C0.0300305134,13.1095597 0.00397142659,13.0461547 0.00397142659,12.9827497 L0.00397142659,1.09430944 C0.00397142659,0.777284367 0.082148687,0.523664308 0.238503208,0.365151771 C0.394857728,0.206639235 0.577271336,0.111531713 0.811803117,0.111531713 L1.98446202,0.111531713 C2.19293472,0.111531713 2.37534832,0.14323422 2.53170285,0.174936727 C2.68805737,0.206639235 2.8183528,0.301746757 2.92258915,0.396854279 C3.02682549,0.491961801 3.15712093,0.650474338 3.23529819,0.808986874 C3.33953454,0.999201919 3.44377088,1.22111947 3.54800723,1.47473953 L5.65879326,6.29352065 C5.78908869,6.57884321 5.89332504,6.86416578 6.02362048,7.14948835 C6.15391591,7.43481091 6.25815226,7.72013348 6.3623886,8.00545604 C6.46662495,8.29077861 6.5708613,8.57610118 6.70115673,8.82972124 C6.80539308,9.1150438 6.90962943,9.36866386 7.01386577,9.65398643 L7.01386577,9.65398643 C6.98780669,9.17844882 6.98780669,8.6712087 6.98780669,8.16396858 L6.98780669,6.67395074 L6.98780669,0.460259294 C6.98780669,0.396854279 7.01386577,0.333449264 7.03992486,0.270044249 C7.06598395,0.206639235 7.11810212,0.174936727 7.19627938,0.111531713 C7.27445664,0.0798292053 7.37869299,0.0481266979 7.50898842,0.0164241906 C7.63928386,-0.0152783168 7.79563838,-0.0152783168 8.00411107,-0.0152783168 C8.18652468,-0.0152783168 8.3428792,-0.0152783168 8.47317463,0.0164241906 C8.60347007,0.0481266979 8.70770641,0.0481266979 8.75982459,0.111531713 C8.83800185,0.14323422 8.89012002,0.206639235 8.91617911,0.270044249 C8.9422382,0.333449264 8.96829728,0.396854279 8.96829728,0.460259294 L8.96829728,12.3804021 L8.99435637,12.3804021 Z" id="Shape"></path>
                <path d="M17.4635596,8.13226607 C17.4635596,8.44929115 17.4114414,8.6712087 17.281146,8.82972124 C17.1769096,8.98823377 17.0205551,9.05163879 16.8120824,9.05163879 L12.2517422,9.05163879 C12.2517422,9.43206888 12.2778013,9.78079646 12.3559786,10.0978215 C12.4341558,10.4148466 12.5644513,10.6684667 12.7208058,10.8903842 C12.8771603,11.1123018 13.085633,11.2708143 13.3462239,11.3976243 C13.6068147,11.5244344 13.9195238,11.5561369 14.284351,11.5561369 C14.6491782,11.5561369 14.9879463,11.5244344 15.2485372,11.4610293 C15.5351872,11.3976243 15.7697189,11.3342193 15.9781916,11.2391118 C16.1866643,11.1757068 16.3430188,11.0805993 16.4733143,11.0171942 C16.6036097,10.9537892 16.7078461,10.9220867 16.8120824,10.9220867 C16.8642006,10.9220867 16.9163188,10.9220867 16.9423778,10.9537892 C16.9684369,10.9854917 16.994496,11.0171942 17.0205551,11.0805993 C17.0466142,11.1440043 17.0466142,11.2391118 17.0726733,11.3342193 L17.0726733,11.7463519 L17.0726733,12.126782 C17.0726733,12.2218895 17.0466142,12.316997 17.0466142,12.4121046 C17.0466142,12.4755096 17.0205551,12.5389146 16.994496,12.6023196 C16.9684369,12.6657246 16.9423778,12.6974271 16.9163188,12.7608321 C16.8902597,12.8242372 16.7860233,12.8876422 16.6296688,12.9510472 C16.4733143,13.0461547 16.2648416,13.1095597 16.0042507,13.2046673 C15.7436598,13.2680723 15.4570099,13.3631798 15.1443009,13.3948823 C14.8315918,13.4582873 14.4667646,13.4899898 14.1019374,13.4899898 C13.4244011,13.4899898 12.8511012,13.3948823 12.3559786,13.1729647 C11.8608559,12.9827497 11.4439105,12.6657246 11.1051424,12.253592 C10.7663743,11.8414594 10.5057834,11.3025168 10.3494289,10.6684667 C10.1930744,10.0344165 10.088838,9.30525885 10.088838,8.44929115 C10.088838,7.62502596 10.1670153,6.89586829 10.3494289,6.26181814 C10.5318425,5.59606549 10.7663743,5.05712286 11.1051424,4.61328776 C11.4439105,4.16945265 11.8347968,3.82072507 12.3038604,3.56710501 C12.772924,3.31348496 13.3201648,3.21837743 13.8934647,3.21837743 C14.5188828,3.21837743 15.0661236,3.34518746 15.5091281,3.56710501 C15.9521325,3.78902257 16.3169598,4.10604764 16.6036097,4.48647773 C16.8902597,4.89861032 17.0987324,5.34244543 17.2290278,5.91309056 C17.3593232,6.45203318 17.4375005,7.05438082 17.4375005,7.68843097 L17.4375005,8.13226607 L17.4635596,8.13226607 Z M15.4048917,7.4031084 C15.4309508,6.67395074 15.3006554,6.1033056 15.0400645,5.69117301 C14.7794736,5.27904041 14.3885873,5.08882537 13.8674056,5.08882537 C13.6068147,5.08882537 13.372283,5.15223038 13.1638103,5.27904041 C12.9553376,5.40585044 12.798983,5.56436298 12.6686876,5.78628053 C12.5383922,6.00819808 12.4341558,6.23011563 12.3559786,6.5154382 C12.2778013,6.80076076 12.2517422,7.08608333 12.2256831,7.43481091 L15.4048917,7.43481091 L15.4048917,7.4031084 Z" id="Shape"></path>
                <path d="M25.0206947,12.7608321 C25.0728129,12.8876422 25.098872,12.9827497 25.0728129,13.0461547 C25.0728129,13.1095597 25.0206947,13.1729647 24.9425175,13.2363698 C24.8643402,13.2997748 24.7340448,13.3314773 24.5776903,13.3314773 C24.4213357,13.3631798 24.2128631,13.3631798 23.9262131,13.3631798 L23.3268541,13.3631798 C23.1704996,13.3631798 23.0402041,13.3314773 22.9620269,13.2997748 C22.8838496,13.2680723 22.8056724,13.2363698 22.7796133,13.1729647 C22.7274951,13.1412622 22.701436,13.0778572 22.6753769,13.0144522 L21.2942453,9.78079646 L19.9131137,13.0144522 C19.8870546,13.0778572 19.8609956,13.1412622 19.8088774,13.1729647 C19.7567592,13.2046673 19.704641,13.2680723 19.6264638,13.2997748 C19.5482865,13.3314773 19.4440502,13.3631798 19.2876957,13.3631798 L18.7143957,13.3631798 C18.479864,13.3631798 18.2713913,13.3631798 18.1150367,13.3314773 C17.9586822,13.2997748 17.8544459,13.2680723 17.8023277,13.2363698 C17.7241504,13.2046673 17.6980914,13.1412622 17.6980914,13.0461547 C17.6980914,12.9827497 17.7241504,12.8876422 17.7762686,12.7608321 L19.8609956,8.29077861 L17.9586822,4.07434513 C17.9065641,3.9475351 17.880505,3.85242758 17.880505,3.75732006 C17.880505,3.66221254 17.9065641,3.59880752 17.9847413,3.56710501 C18.0629186,3.5037 18.1671549,3.47199749 18.3235094,3.47199749 C18.479864,3.44029498 18.6883367,3.44029498 18.9749866,3.44029498 L19.5743456,3.44029498 C19.7307001,3.44029498 19.8349365,3.47199749 19.9131137,3.47199749 C19.991291,3.5037 20.0694683,3.53540251 20.0955273,3.56710501 C20.1476455,3.59880752 20.1737046,3.66221254 20.1997637,3.72561755 L21.5287771,6.76905826 L22.8577905,3.72561755 C22.8838496,3.66221254 22.9099087,3.63051003 22.9359678,3.56710501 C22.9620269,3.53540251 23.0141451,3.5037 23.0923223,3.47199749 C23.1704996,3.44029498 23.2747359,3.40859248 23.3789723,3.40859248 C23.5092677,3.40859248 23.6656222,3.37688997 23.900154,3.37688997 C24.1346858,3.37688997 24.3431585,3.37688997 24.499513,3.40859248 C24.6558675,3.40859248 24.7601039,3.44029498 24.8122221,3.5037 C24.8643402,3.56710501 24.9164584,3.63051003 24.9164584,3.69391504 C24.9164584,3.78902257 24.8903993,3.88413009 24.8122221,4.01094012 L22.9359678,8.13226607 L25.0206947,12.7608321 L25.0206947,12.7608321 Z" id="Shape"></path>
                <path d="M30.8318711,12.063377 C30.8318711,12.3486996 30.805812,12.6023196 30.7797529,12.7608321 C30.7536938,12.9193447 30.7015757,13.0461547 30.6494575,13.1095597 C30.5973393,13.1729647 30.5191621,13.2363698 30.4149257,13.2680723 C30.3106894,13.3314773 30.206453,13.3631798 30.0761576,13.3948823 C29.9458621,13.4265848 29.7895076,13.4582873 29.6592122,13.4899898 C29.5028577,13.5216923 29.3465032,13.5216923 29.1901486,13.5216923 C28.7732032,13.5216923 28.408376,13.4582873 28.095667,13.3314773 C27.7829579,13.2046673 27.5223671,13.0144522 27.3399535,12.7291296 C27.1314808,12.4755096 27.0011853,12.126782 26.896949,11.7146494 C26.7927126,11.3025168 26.7666536,10.8269792 26.7666536,10.2563341 L26.7666536,5.59606549 L25.8806446,5.59606549 C25.7764083,5.59606549 25.698231,5.50095796 25.6461128,5.34244543 C25.5939947,5.18393289 25.5679356,4.93031283 25.5679356,4.54988274 C25.5679356,4.3596677 25.5679356,4.20115516 25.5939947,4.04264262 C25.6200537,3.9158326 25.6200537,3.78902257 25.6461128,3.72561755 C25.6721719,3.66221254 25.698231,3.59880752 25.7503492,3.56710501 C25.8024673,3.53540251 25.8285264,3.5037 25.9067037,3.5037 L26.7927126,3.5037 L26.7927126,1.47473953 C26.7927126,1.41133451 26.8187717,1.3479295 26.8448308,1.28452448 C26.8708899,1.22111947 26.9230081,1.18941696 27.0011853,1.15771446 C27.0793626,1.12601195 27.1835989,1.09430944 27.3399535,1.06260693 C27.4702489,1.03090443 27.6526625,1.03090443 27.8611352,1.03090443 C28.0696079,1.03090443 28.2520215,1.03090443 28.3823169,1.06260693 C28.5126124,1.09430944 28.6168487,1.09430944 28.695026,1.15771446 C28.7732032,1.18941696 28.8253214,1.25282198 28.8513805,1.28452448 C28.8774396,1.3479295 28.9034987,1.41133451 28.9034987,1.47473953 L28.9034987,3.5037 L30.5452211,3.5037 C30.5973393,3.5037 30.6494575,3.53540251 30.7015757,3.56710501 C30.7536938,3.59880752 30.7797529,3.66221254 30.805812,3.72561755 C30.8318711,3.78902257 30.8579302,3.9158326 30.8579302,4.04264262 C30.8839893,4.16945265 30.8839893,4.3596677 30.8839893,4.54988274 C30.8839893,4.93031283 30.8579302,5.18393289 30.805812,5.34244543 C30.7536938,5.50095796 30.6755166,5.59606549 30.5712802,5.59606549 L28.9295578,5.59606549 L28.9295578,9.87590398 C28.9295578,10.3831441 28.9816759,10.7318717 29.1119714,10.9854917 C29.2422668,11.2391118 29.4767986,11.3659218 29.7895076,11.3659218 C29.893744,11.3659218 29.9979803,11.3659218 30.1022167,11.3342193 C30.1803939,11.3025168 30.2585712,11.2708143 30.3367485,11.2391118 C30.4149257,11.2074093 30.4670439,11.1757068 30.5191621,11.1440043 C30.5712802,11.1123018 30.5973393,11.1123018 30.6494575,11.1123018 C30.6755166,11.1123018 30.7276348,11.1123018 30.7536938,11.1440043 C30.7797529,11.1757068 30.805812,11.2074093 30.8318711,11.3025168 C30.8579302,11.3659218 30.8579302,11.4610293 30.8839893,11.5878394 C30.8318711,11.7146494 30.8318711,11.8731619 30.8318711,12.063377 L30.8318711,12.063377 Z" id="Shape"></path>
                <path d="M44.7213644,6.5154382 C44.7213644,7.72013348 44.5910689,8.76631622 44.3304781,9.62228392 C44.0698872,10.4782516 43.70506,11.1757068 43.2099373,11.7463519 C42.7148147,12.2852945 42.1415148,12.6974271 41.4379194,12.9510472 C40.7343241,13.2046673 39.9004333,13.3314773 38.9362471,13.3314773 L36.3303384,13.3314773 C36.1479248,13.3314773 35.9915703,13.2680723 35.8612749,13.1412622 C35.7309794,13.0144522 35.6788612,12.7925347 35.6788612,12.5072121 L35.6788612,0.935796904 C35.6788612,0.650474338 35.7309794,0.428556786 35.8612749,0.301746757 C35.9915703,0.174936727 36.1479248,0.111531713 36.3303384,0.111531713 L39.1186607,0.111531713 C40.0828469,0.111531713 40.9167377,0.238341742 41.5942739,0.523664308 C42.2718102,0.808986874 42.8451101,1.22111947 43.2881146,1.7600621 C43.7571781,2.29900472 44.0959463,2.96475737 44.3304781,3.75732006 C44.5910689,4.51818024 44.7213644,5.43755295 44.7213644,6.5154382 L44.7213644,6.5154382 Z M42.4281647,6.57884321 C42.4281647,5.94479307 42.3760465,5.37414793 42.2457511,4.83520531 C42.1154557,4.29626268 41.9330421,3.82072507 41.6724512,3.44029498 C41.4118603,3.0598649 41.0730922,2.74283982 40.6561468,2.52092227 C40.2392014,2.29900472 39.6919606,2.2038972 39.0144244,2.2038972 L37.8938836,2.2038972 L37.8938836,11.2074093 L39.0404834,11.2074093 C39.6398424,11.2074093 40.1610242,11.1123018 40.5779696,10.9220867 C40.9949149,10.7318717 41.3336831,10.4465491 41.620333,10.066119 C41.906983,9.68568893 42.1154557,9.21015132 42.2457511,8.63950619 C42.3760465,8.03715855 42.4281647,7.3714059 42.4281647,6.57884321 L42.4281647,6.57884321 Z" id="Shape"></path>
                <path d="M53.9723402,8.32248112 C53.9723402,9.08334129 53.8941629,9.81249896 53.7117493,10.4465491 C53.5553948,11.0805993 53.2948039,11.6512444 52.9560358,12.0950795 C52.6172677,12.5706171 52.1742632,12.9193447 51.6791405,13.1729647 C51.1579588,13.4265848 50.5585998,13.5533948 49.8810635,13.5533948 C49.2035273,13.5533948 48.6302274,13.4265848 48.1351047,13.2046673 C47.6399821,12.9827497 47.2230367,12.6657246 46.9103276,12.2218895 C46.5976186,11.7780544 46.3370277,11.2708143 46.1806732,10.6367642 C46.0243187,10.002714 45.9461414,9.30525885 45.9461414,8.48099365 C45.9461414,7.72013348 46.0243187,6.99097581 46.2067323,6.35692566 C46.3891459,5.72287551 46.6236777,5.15223038 46.9624458,4.70839528 C47.301214,4.26456018 47.7181593,3.88413009 48.2393411,3.63051003 C48.7605228,3.37688997 49.3598818,3.25007994 50.0374181,3.25007994 C50.7149543,3.25007994 51.2882542,3.34518746 51.7833769,3.56710501 C52.2784995,3.78902257 52.6954449,4.10604764 53.008154,4.54988274 C53.320863,4.99371785 53.5814539,5.50095796 53.7378084,6.13500811 C53.8941629,6.76905826 53.9723402,7.49821593 53.9723402,8.32248112 L53.9723402,8.32248112 Z M51.809436,8.41758864 C51.809436,7.97375354 51.7833769,7.56162094 51.7312587,7.18119085 C51.6791405,6.80076076 51.5749042,6.48373569 51.4446088,6.19841312 C51.3143133,5.91309056 51.1058406,5.69117301 50.8973679,5.53266047 C50.6628361,5.37414793 50.3761862,5.31074292 50.011359,5.31074292 C49.6986499,5.31074292 49.412,5.37414793 49.1774682,5.53266047 C48.9429364,5.6594705 48.7605228,5.88138805 48.6041683,6.13500811 C48.4478138,6.38862817 48.3435774,6.73735575 48.2654002,7.11778584 C48.1872229,7.49821593 48.1611638,7.94205103 48.1611638,8.41758864 C48.1611638,8.86142374 48.1872229,9.27355634 48.2654002,9.65398643 C48.3175183,10.0344165 48.4217547,10.3514416 48.5520501,10.6367642 C48.6823456,10.9220867 48.8647592,11.1440043 49.0992909,11.2708143 C49.3338227,11.4293268 49.6204727,11.4927319 49.9852999,11.4927319 C50.2980089,11.4927319 50.5846589,11.4293268 50.8191907,11.2708143 C51.0537224,11.1440043 51.2361361,10.9220867 51.3924906,10.6684667 C51.5488451,10.4148466 51.6530814,10.066119 51.7312587,9.71739144 C51.7833769,9.33696135 51.809436,8.89312625 51.809436,8.41758864 L51.809436,8.41758864 Z" id="Shape"></path>
                <path d="M63.223316,8.32248112 C63.223316,9.08334129 63.1451387,9.81249896 62.9627251,10.4465491 C62.8063706,11.0805993 62.5457797,11.6512444 62.2070116,12.0950795 C61.8682435,12.5706171 61.425239,12.9193447 60.9301163,13.1729647 C60.4089346,13.4265848 59.8095756,13.5533948 59.1320394,13.5533948 C58.4545031,13.5533948 57.8812032,13.4265848 57.3860805,13.2046673 C56.8909579,12.9827497 56.4740125,12.6657246 56.1613035,12.2218895 C55.8485944,11.7780544 55.5880036,11.2708143 55.431649,10.6367642 C55.2752945,10.002714 55.1971172,9.30525885 55.1971172,8.48099365 C55.1971172,7.72013348 55.2752945,6.99097581 55.4577081,6.35692566 C55.6401217,5.72287551 55.8746535,5.15223038 56.2134216,4.70839528 C56.5521898,4.26456018 56.9691352,3.88413009 57.4903169,3.63051003 C58.0114986,3.37688997 58.6108576,3.25007994 59.2883939,3.25007994 C59.9659301,3.25007994 60.53923,3.34518746 61.0343527,3.56710501 C61.5294753,3.78902257 61.9464207,4.10604764 62.2591298,4.54988274 C62.5718388,4.99371785 62.8324297,5.50095796 62.9887842,6.13500811 C63.1451387,6.76905826 63.223316,7.49821593 63.223316,8.32248112 L63.223316,8.32248112 Z M61.0604118,8.41758864 C61.0604118,7.97375354 61.0343527,7.56162094 60.9822345,7.18119085 C60.9301163,6.80076076 60.82588,6.48373569 60.6955846,6.19841312 C60.5652891,5.91309056 60.3568164,5.69117301 60.1483437,5.53266047 C59.913812,5.37414793 59.627162,5.31074292 59.2623348,5.31074292 C58.9496257,5.31074292 58.6629758,5.37414793 58.428444,5.53266047 C58.1939122,5.6594705 58.0114986,5.88138805 57.8551441,6.13500811 C57.6987896,6.38862817 57.5945532,6.73735575 57.516376,7.11778584 C57.4381987,7.49821593 57.4121396,7.94205103 57.4121396,8.41758864 C57.4121396,8.86142374 57.4381987,9.27355634 57.516376,9.65398643 C57.5684941,10.0344165 57.6727305,10.3514416 57.8030259,10.6367642 C57.9333214,10.9220867 58.115735,11.1440043 58.3502668,11.2708143 C58.5847985,11.4293268 58.8714485,11.4927319 59.2362757,11.4927319 C59.5489847,11.4927319 59.8356347,11.4293268 60.0701665,11.2708143 C60.3046983,11.1123018 60.4871119,10.9220867 60.6434664,10.6684667 C60.7998209,10.4148466 60.9040573,10.066119 60.9822345,9.71739144 C61.0082936,9.33696135 61.0604118,8.89312625 61.0604118,8.41758864 L61.0604118,8.41758864 Z" id="Shape"></path>
                <path d="M69.7120286,4.70839528 C69.7120286,4.96201534 69.7120286,5.15223038 69.6859695,5.31074292 C69.6859695,5.46925546 69.6599104,5.59606549 69.6338513,5.69117301 C69.6077922,5.78628053 69.5817332,5.84968554 69.5556741,5.88138805 C69.529615,5.91309056 69.4774968,5.94479307 69.4253786,5.94479307 C69.3732605,5.94479307 69.3211423,5.94479307 69.2690241,5.91309056 C69.2169059,5.88138805 69.1387287,5.84968554 69.0866105,5.84968554 C69.0084332,5.81798304 68.930256,5.78628053 68.8520787,5.78628053 C68.7739015,5.75457802 68.6696651,5.75457802 68.5654288,5.75457802 C68.4611924,5.75457802 68.330897,5.78628053 68.2006016,5.84968554 C68.0963652,5.91309056 67.9660698,6.00819808 67.8357743,6.13500811 C67.7054789,6.26181814 67.5751835,6.42033068 67.444888,6.61054572 C67.3145926,6.80076076 67.1582381,7.05438082 67.0018836,7.3714059 L67.0018836,13.0461547 C67.0018836,13.1095597 66.9758245,13.1729647 66.9497654,13.2363698 C66.9237063,13.2997748 66.8715881,13.3314773 66.7673518,13.3631798 C66.6891745,13.3948823 66.5849382,13.4265848 66.4546427,13.4265848 C66.3243473,13.4582873 66.1419337,13.4582873 65.933461,13.4582873 C65.7249883,13.4582873 65.5686338,13.4582873 65.4122793,13.4265848 C65.2819838,13.3948823 65.1777475,13.3948823 65.0995702,13.3631798 C65.021393,13.3314773 64.9692748,13.2997748 64.9171566,13.2363698 C64.8910975,13.1729647 64.8650384,13.1412622 64.8650384,13.0461547 L64.8650384,3.9475351 C64.8650384,3.88413009 64.8910975,3.82072507 64.9171566,3.75732006 C64.9432157,3.69391504 64.9953339,3.66221254 65.0735111,3.63051003 C65.1516884,3.59880752 65.2298657,3.56710501 65.3601611,3.56710501 C65.4643974,3.53540251 65.620752,3.53540251 65.8031656,3.53540251 C65.9855792,3.53540251 66.1419337,3.53540251 66.24617,3.56710501 C66.3504064,3.59880752 66.4546427,3.59880752 66.5067609,3.63051003 C66.5588791,3.66221254 66.6109973,3.69391504 66.6370563,3.75732006 C66.6631154,3.82072507 66.6891745,3.85242758 66.6891745,3.9475351 L66.6891745,5.08882537 C66.8976472,4.74009779 67.0800608,4.45477522 67.2364153,4.23285767 C67.418829,4.01094012 67.5751835,3.82072507 67.731538,3.69391504 C67.8878925,3.56710501 68.044247,3.47199749 68.2006016,3.40859248 C68.3569561,3.34518746 68.5133106,3.34518746 68.6696651,3.34518746 L68.9041969,3.34518746 C68.9823742,3.34518746 69.0866105,3.37688997 69.1647878,3.40859248 C69.242965,3.44029498 69.3211423,3.47199749 69.3993195,3.5037 C69.4774968,3.53540251 69.5035559,3.56710501 69.5556741,3.59880752 C69.5817332,3.63051003 69.6077922,3.66221254 69.6338513,3.72561755 C69.6599104,3.75732006 69.6599104,3.82072507 69.6599104,3.88413009 C69.6599104,3.9475351 69.6859695,4.07434513 69.6859695,4.20115516 C69.7120286,4.26456018 69.7120286,4.45477522 69.7120286,4.70839528 L69.7120286,4.70839528 Z" id="Shape"></path>
            </g>
            <g id="Pet-Sitters" transform="translate(71.515784, 2.164474)" fill="#565656" sketch:type="MSShapeGroup">
                <path d="M6.95615153,3.54491673 C6.95615153,4.15261674 6.86214948,4.70967509 6.67414539,5.16545009 C6.48614129,5.6212251 6.25113617,6.02635844 5.87512798,6.38085012 C5.54612081,6.68470012 5.1231116,6.93790846 4.60610034,7.14047513 C4.08908907,7.29240013 3.52507679,7.39368347 2.86706245,7.39368347 L2.02104403,7.39368347 L2.02104403,10.8879585 C2.02104403,10.9386002 2.02104403,10.9892419 1.974043,11.0398835 C1.92704198,11.0905252 1.88004095,11.1411669 1.78603891,11.1411669 C1.69203686,11.1918085 1.59803481,11.1918085 1.45703174,11.1918085 C1.31602867,11.1918085 1.1750256,11.2424502 0.940020477,11.2424502 C0.752016382,11.2424502 0.564012286,11.2424502 0.423009215,11.1918085 C0.282006143,11.1411669 0.188004095,11.1411669 0.0940020477,11.1411669 C2.72004641e-15,11.0905252 -0.0470010238,11.0905252 -0.0940020477,11.0398835 C-0.141003072,10.9892419 -0.141003072,10.9386002 -0.141003072,10.8879585 L-0.141003072,1.01283335 C-0.141003072,0.759625014 -0.0940020477,0.557058344 0.0470010238,0.405133341 C0.188004095,0.253208338 0.329007167,0.20256667 0.564012286,0.20256667 L2.9610645,0.20256667 C3.19606962,0.20256667 3.43107474,0.20256667 3.66607986,0.253208338 C3.90108498,0.253208338 4.1360901,0.303850006 4.46509727,0.405133341 C4.74710341,0.455775008 5.07611058,0.607700011 5.40511774,0.759625014 C5.73412491,0.911550017 5.96913003,1.16475835 6.20413515,1.41796669 C6.43914027,1.67117503 6.58014334,1.97502504 6.72114641,2.38015838 C6.86214948,2.68400838 6.95615153,3.08914172 6.95615153,3.54491673 L6.95615153,3.54491673 Z M4.79410443,3.69684173 C4.79410443,3.29170839 4.74710341,2.98785839 4.60610034,2.73465005 C4.46509727,2.48144171 4.32409419,2.27887504 4.1360901,2.17759171 C3.948086,2.07630837 3.76008191,1.97502504 3.57207781,1.97502504 C3.38407372,1.92438337 3.1490686,1.92438337 2.9610645,1.92438337 L2.06804505,1.92438337 L2.06804505,5.6212251 L3.00806553,5.6212251 C3.33707269,5.6212251 3.61907884,5.57058344 3.85408396,5.4693001 C4.08908907,5.36801676 4.27709317,5.21609176 4.41809624,5.06416676 C4.55909931,4.91224176 4.65310136,4.70967509 4.74710341,4.45646675 C4.74710341,4.25390008 4.79410443,3.95005007 4.79410443,3.69684173 L4.79410443,3.69684173 Z" id="Shape"></path>
                <path d="M14.8993246,10.2802585 L14.8993246,10.6853919 C14.8993246,10.7866752 14.8523235,10.8879585 14.8523235,10.9386002 C14.8053225,10.9892419 14.8053225,11.0398835 14.7583215,11.0905252 C14.7113205,11.1411669 14.6643194,11.1411669 14.6173184,11.1411669 L9.49420682,11.1411669 C9.30620272,11.1411669 9.16519965,11.0905252 9.0711976,10.9892419 C8.97719555,10.8879585 8.88319351,10.6853919 8.88319351,10.4321835 L8.88319351,0.911550017 C8.88319351,0.658341679 8.93019453,0.506416676 9.0711976,0.354491673 C9.21220067,0.253208338 9.35320375,0.20256667 9.49420682,0.20256667 L14.5703174,0.20256667 C14.6173184,0.20256667 14.6643194,0.20256667 14.7113205,0.253208338 C14.7583215,0.303850006 14.7583215,0.354491673 14.8053225,0.405133341 C14.8523235,0.455775008 14.8523235,0.557058344 14.8523235,0.658341679 L14.8523235,1.06347502 L14.8523235,1.46860836 C14.8523235,1.5698917 14.8053225,1.67117503 14.8053225,1.7218167 C14.7583215,1.77245837 14.7583215,1.82310003 14.7113205,1.8737417 C14.6643194,1.92438337 14.6173184,1.92438337 14.5703174,1.92438337 L10.9512386,1.92438337 L10.9512386,4.60839175 L14.0063051,4.60839175 C14.0533061,4.60839175 14.1003072,4.60839175 14.1473082,4.65903342 C14.1943092,4.70967509 14.2413102,4.76031675 14.2413102,4.81095842 C14.2883112,4.86160009 14.2883112,4.96288342 14.2883112,5.06416676 L14.2883112,5.4693001 L14.2883112,5.87443344 C14.2883112,5.97571678 14.2413102,6.07700011 14.2413102,6.12764178 C14.1943092,6.17828345 14.1943092,6.22892511 14.1473082,6.27956678 C14.1003072,6.33020845 14.0533061,6.33020845 14.0063051,6.33020845 L10.9512386,6.33020845 L10.9512386,9.41935017 L14.6173184,9.41935017 C14.6643194,9.41935017 14.7113205,9.41935017 14.7583215,9.46999184 C14.8053225,9.52063351 14.8523235,9.57127518 14.8523235,9.62191684 C14.8993246,9.67255851 14.8993246,9.77384185 14.8993246,9.87512518 C14.8523235,9.97640852 14.8993246,10.1283335 14.8993246,10.2802585 L14.8993246,10.2802585 Z" id="Shape"></path>
                <path d="M23.7825181,1.11411669 L23.7825181,1.51925003 C23.7825181,1.62053336 23.735517,1.7218167 23.735517,1.82310003 C23.688516,1.8737417 23.688516,1.92438337 23.641515,1.97502504 C23.594514,2.0256667 23.5475129,2.0256667 23.5005119,2.0256667 L20.9624566,2.0256667 L20.9624566,10.8373169 C20.9624566,10.8879585 20.9624566,10.9386002 20.9154556,10.9892419 C20.8684546,11.0398835 20.8214536,11.0905252 20.7274515,11.0905252 C20.6334495,11.1411669 20.5394474,11.1411669 20.3984443,11.1411669 C20.2574413,11.1411669 20.1164382,11.1918085 19.8814331,11.1918085 C19.693429,11.1918085 19.5054249,11.1918085 19.3644218,11.1411669 C19.2234188,11.1411669 19.1294167,11.0905252 19.0354147,11.0905252 C18.9414126,11.0398835 18.8944116,11.0398835 18.8474106,10.9892419 C18.8004095,10.9386002 18.8004095,10.8879585 18.8004095,10.8373169 L18.8004095,2.0256667 L16.2623543,2.0256667 C16.2153532,2.0256667 16.1683522,2.0256667 16.1213512,1.97502504 C16.0743502,1.92438337 16.0743502,1.8737417 16.0273491,1.82310003 C15.9803481,1.77245837 15.9803481,1.67117503 15.9803481,1.51925003 L15.9803481,1.11411669 L15.9803481,0.658341679 C15.9803481,0.557058344 16.0273491,0.455775008 16.0273491,0.354491673 C16.0743502,0.303850006 16.0743502,0.253208338 16.1213512,0.20256667 C16.1683522,0.151925003 16.2153532,0.151925003 16.2623543,0.151925003 L23.4065099,0.151925003 C23.4535109,0.151925003 23.5005119,0.151925003 23.5475129,0.20256667 C23.594514,0.253208338 23.641515,0.303850006 23.641515,0.354491673 C23.688516,0.405133341 23.688516,0.506416676 23.688516,0.658341679 C23.7825181,0.810266682 23.7825181,0.962191684 23.7825181,1.11411669 L23.7825181,1.11411669 Z" id="Shape"></path>
                <path d="M35.2507679,7.84945848 C35.2507679,8.40651682 35.1567658,8.9129335 34.9687617,9.3687085 C34.7807576,9.82448351 34.4987515,10.1789752 34.1697443,10.4321835 C33.8407372,10.7360335 33.417728,10.9386002 32.9947187,11.0905252 C32.5247085,11.2424502 32.0546983,11.2930919 31.537687,11.2930919 C31.2086798,11.2930919 30.8796727,11.2424502 30.5506655,11.1918085 C30.2686594,11.1411669 29.9866532,11.0398835 29.7516481,10.9892419 C29.516643,10.8879585 29.3286389,10.7866752 29.1876358,10.7360335 C29.0466327,10.6347502 28.9056297,10.5334669 28.8586286,10.4828252 C28.8116276,10.4321835 28.7646266,10.2802585 28.7176256,10.1789752 C28.6706245,10.0270502 28.6706245,9.82448351 28.6706245,9.57127518 L28.6706245,9.11550017 C28.6706245,9.01421683 28.7176256,8.9129335 28.7176256,8.81165016 C28.7176256,8.76100849 28.7646266,8.71036683 28.8116276,8.65972516 C28.8586286,8.60908349 28.9056297,8.60908349 28.9526307,8.60908349 C29.0466327,8.60908349 29.1406348,8.65972516 29.2816379,8.76100849 C29.4226409,8.86229183 29.563644,8.96357516 29.7986491,9.0648585 C29.9866532,9.16614183 30.2686594,9.26742517 30.5506655,9.3687085 C30.8326716,9.46999184 31.1616788,9.52063351 31.537687,9.52063351 C31.7726921,9.52063351 32.0076972,9.46999184 32.1957013,9.41935017 C32.3837054,9.3687085 32.5717095,9.26742517 32.7127126,9.16614183 C32.8537157,9.0648585 32.9477177,8.9129335 33.0417198,8.71036683 C33.1357218,8.55844182 33.1357218,8.35587515 33.1357218,8.10266682 C33.1357218,7.84945848 33.0887208,7.64689181 32.9477177,7.44432514 C32.8067146,7.24175847 32.6657116,7.08983346 32.4777075,6.98855013 C32.2897034,6.83662513 32.0546983,6.73534179 31.7726921,6.58341679 C31.537687,6.48213345 31.2556809,6.33020845 30.9736747,6.17828345 C30.6916686,6.02635844 30.4566635,5.87443344 30.1746573,5.72250844 C29.9396522,5.57058344 29.7046471,5.36801676 29.469642,5.11480843 C29.2816379,4.86160009 29.0936338,4.60839175 28.9996317,4.25390008 C28.8586286,3.95005007 28.8116276,3.54491673 28.8116276,3.08914172 C28.8116276,2.58272505 28.9056297,2.12695004 29.0936338,1.7218167 C29.2816379,1.31668336 29.516643,1.01283335 29.8456501,0.708983346 C30.1746573,0.455775008 30.5036645,0.253208338 30.9266737,0.101283335 C31.3496829,-0.0506416676 31.7726921,-0.101283335 32.2427024,-0.101283335 C32.4777075,-0.101283335 32.7127126,-0.101283335 32.9477177,-0.0506416676 C33.1827228,8.32806046e-14 33.417728,0.0506416676 33.605732,0.101283335 C33.7937361,0.151925003 33.9817402,0.253208338 34.1697443,0.354491673 C34.3107474,0.455775008 34.4517505,0.506416676 34.4987515,0.557058344 C34.5457525,0.607700011 34.5927535,0.658341679 34.5927535,0.708983346 C34.5927535,0.759625014 34.6397546,0.810266682 34.6397546,0.860908349 C34.6397546,0.911550017 34.6397546,1.01283335 34.6867556,1.11411669 L34.6867556,1.46860836 L34.6867556,1.8737417 C34.6867556,1.97502504 34.6867556,2.07630837 34.6397546,2.17759171 C34.6397546,2.22823337 34.5927535,2.32951671 34.5457525,2.32951671 C34.4987515,2.38015838 34.4517505,2.38015838 34.4047495,2.38015838 C34.3577484,2.38015838 34.2637464,2.32951671 34.1227433,2.27887504 C33.9817402,2.17759171 33.8407372,2.12695004 33.6527331,2.0256667 C33.464729,1.92438337 33.2767249,1.82310003 32.9947187,1.77245837 C32.7597136,1.67117503 32.4777075,1.67117503 32.1957013,1.67117503 C31.9606962,1.67117503 31.7726921,1.7218167 31.584688,1.77245837 C31.3966839,1.82310003 31.2556809,1.92438337 31.1616788,2.0256667 C31.0676768,2.12695004 30.9736747,2.27887504 30.9266737,2.38015838 C30.8796727,2.53208338 30.8326716,2.68400838 30.8326716,2.83593339 C30.8326716,3.08914172 30.8796727,3.29170839 31.0206757,3.4436334 C31.1616788,3.64620007 31.3026819,3.79812507 31.537687,3.8994084 C31.7256911,4.05133341 31.9606962,4.15261674 32.2427024,4.30454175 C32.5247085,4.40582508 32.7597136,4.55775008 33.0417198,4.70967509 C33.3237259,4.86160009 33.558731,5.01352509 33.8407372,5.16545009 C34.1227433,5.3173751 34.3577484,5.51994177 34.5457525,5.77315011 C34.7337566,6.02635844 34.9217607,6.27956678 35.0627638,6.63405845 C35.2037669,7.0391918 35.2507679,7.44432514 35.2507679,7.84945848 L35.2507679,7.84945848 Z" id="Shape"></path>
                <path d="M39.2458549,10.8373169 C39.2458549,10.8879585 39.2458549,10.9386002 39.1988539,10.9892419 C39.1518529,11.0398835 39.1048518,11.0905252 39.0108498,11.0905252 C38.9168477,11.1411669 38.8228457,11.1411669 38.6818426,11.1411669 C38.5408396,11.1411669 38.3998365,11.1918085 38.1648314,11.1918085 C37.9768273,11.1918085 37.7888232,11.1918085 37.6478201,11.1411669 C37.506817,11.1411669 37.412815,11.0905252 37.3188129,11.0905252 C37.2248109,11.0398835 37.1778099,11.0398835 37.1308088,10.9892419 C37.0838078,10.9386002 37.0838078,10.8879585 37.0838078,10.8373169 L37.0838078,0.506416676 C37.0838078,0.455775008 37.0838078,0.405133341 37.1308088,0.354491673 C37.1778099,0.303850006 37.2248109,0.253208338 37.3188129,0.253208338 C37.412815,0.20256667 37.506817,0.20256667 37.6478201,0.20256667 L38.1648314,0.20256667 L38.6818426,0.20256667 C38.8228457,0.20256667 38.9168477,0.253208338 39.0108498,0.253208338 C39.1048518,0.303850006 39.1518529,0.303850006 39.1988539,0.354491673 C39.2458549,0.405133341 39.2458549,0.455775008 39.2458549,0.506416676 L39.2458549,10.8373169 L39.2458549,10.8373169 Z" id="Shape"></path>
                <path d="M48.5520576,1.11411669 L48.5520576,1.51925003 C48.5520576,1.62053336 48.5050566,1.7218167 48.5050566,1.82310003 C48.4580556,1.8737417 48.4580556,1.92438337 48.4110546,1.97502504 C48.3640535,2.0256667 48.3170525,2.0256667 48.2700515,2.0256667 L45.7319962,2.0256667 L45.7319962,10.8373169 C45.7319962,10.8879585 45.7319962,10.9386002 45.6849952,10.9892419 C45.6379942,11.0398835 45.5909931,11.0905252 45.4969911,11.0905252 C45.402989,11.1411669 45.308987,11.1411669 45.1679839,11.1411669 C45.0269808,11.1411669 44.8859778,11.1918085 44.6509727,11.1918085 C44.4629686,11.1918085 44.2749645,11.1918085 44.1339614,11.1411669 C43.9929583,11.1411669 43.8989563,11.0905252 43.8049542,11.0905252 C43.7109522,11.0398835 43.6639512,11.0398835 43.6169501,10.9892419 C43.5699491,10.9386002 43.5699491,10.8879585 43.5699491,10.8373169 L43.5699491,2.0256667 L41.0318938,2.0256667 C40.9848928,2.0256667 40.9378918,2.0256667 40.8908907,1.97502504 C40.8438897,1.92438337 40.8438897,1.8737417 40.7968887,1.82310003 C40.7498877,1.77245837 40.7498877,1.67117503 40.7498877,1.51925003 L40.7498877,1.11411669 L40.7498877,0.658341679 C40.7498877,0.557058344 40.7968887,0.455775008 40.7968887,0.354491673 C40.8438897,0.303850006 40.8438897,0.253208338 40.8908907,0.20256667 C40.9378918,0.151925003 40.9848928,0.151925003 41.0318938,0.151925003 L48.1760494,0.151925003 C48.2230505,0.151925003 48.2700515,0.151925003 48.3170525,0.20256667 C48.3640535,0.253208338 48.4110546,0.303850006 48.4110546,0.354491673 C48.4580556,0.405133341 48.4580556,0.506416676 48.4580556,0.658341679 C48.5050566,0.810266682 48.5520576,0.962191684 48.5520576,1.11411669 L48.5520576,1.11411669 Z" id="Shape"></path>
                <path d="M57.0122419,1.11411669 L57.0122419,1.51925003 C57.0122419,1.62053336 56.9652409,1.7218167 56.9652409,1.82310003 C56.9182399,1.8737417 56.9182399,1.92438337 56.8712389,1.97502504 C56.8242378,2.0256667 56.7772368,2.0256667 56.7302358,2.0256667 L54.1921805,2.0256667 L54.1921805,10.8373169 C54.1921805,10.8879585 54.1921805,10.9386002 54.1451795,10.9892419 C54.0981784,11.0398835 54.0511774,11.0905252 53.9571754,11.0905252 C53.8631733,11.1411669 53.7691713,11.1411669 53.6281682,11.1411669 C53.4871651,11.1411669 53.3461621,11.1918085 53.1111569,11.1918085 C52.9231528,11.1918085 52.7351488,11.1918085 52.5941457,11.1411669 C52.4531426,11.1411669 52.3591406,11.0905252 52.2651385,11.0905252 C52.1711365,11.0398835 52.1241354,11.0398835 52.0771344,10.9892419 C52.0301334,10.9386002 52.0301334,10.8879585 52.0301334,10.8373169 L52.0301334,2.0256667 L49.4920781,2.0256667 C49.4450771,2.0256667 49.3980761,2.0256667 49.351075,1.97502504 C49.304074,1.92438337 49.304074,1.8737417 49.257073,1.82310003 C49.210072,1.77245837 49.210072,1.67117503 49.210072,1.51925003 L49.210072,1.11411669 L49.210072,0.658341679 C49.210072,0.557058344 49.257073,0.455775008 49.257073,0.354491673 C49.304074,0.303850006 49.304074,0.253208338 49.351075,0.20256667 C49.3980761,0.151925003 49.4450771,0.151925003 49.4920781,0.151925003 L56.6362337,0.151925003 C56.6832348,0.151925003 56.7302358,0.151925003 56.7772368,0.20256667 C56.8242378,0.253208338 56.8712389,0.303850006 56.8712389,0.354491673 C56.9182399,0.405133341 56.9182399,0.506416676 56.9182399,0.658341679 C57.0122419,0.810266682 57.0122419,0.962191684 57.0122419,1.11411669 L57.0122419,1.11411669 Z" id="Shape"></path>
                <path d="M64.5324057,10.2802585 L64.5324057,10.6853919 C64.5324057,10.7866752 64.4854047,10.8879585 64.4854047,10.9386002 C64.4384037,10.9892419 64.4384037,11.0398835 64.3914027,11.0905252 C64.3444016,11.1411669 64.2974006,11.1411669 64.2503996,11.1411669 L59.127288,11.1411669 C58.9392839,11.1411669 58.7982808,11.0905252 58.7042788,10.9892419 C58.6102767,10.8879585 58.5162747,10.6853919 58.5162747,10.4321835 L58.5162747,0.911550017 C58.5162747,0.658341679 58.5632757,0.506416676 58.7042788,0.354491673 C58.8452819,0.253208338 58.9862849,0.20256667 59.127288,0.20256667 L64.2033986,0.20256667 C64.2503996,0.20256667 64.2974006,0.20256667 64.3444016,0.253208338 C64.3914027,0.303850006 64.3914027,0.354491673 64.4384037,0.405133341 C64.4854047,0.455775008 64.4854047,0.557058344 64.4854047,0.658341679 L64.4854047,1.06347502 L64.4854047,1.46860836 C64.4854047,1.5698917 64.4384037,1.67117503 64.4384037,1.7218167 C64.3914027,1.77245837 64.3914027,1.82310003 64.3444016,1.8737417 C64.2974006,1.92438337 64.2503996,1.92438337 64.2033986,1.92438337 L60.5843197,1.92438337 L60.5843197,4.60839175 L63.6393863,4.60839175 C63.6863873,4.60839175 63.7333883,4.60839175 63.7803894,4.65903342 C63.8273904,4.70967509 63.8743914,4.76031675 63.8743914,4.81095842 C63.9213924,4.86160009 63.9213924,4.96288342 63.9213924,5.06416676 L63.9213924,5.4693001 L63.9213924,5.87443344 C63.9213924,5.97571678 63.8743914,6.07700011 63.8743914,6.12764178 C63.8273904,6.17828345 63.8273904,6.22892511 63.7803894,6.27956678 C63.7333883,6.33020845 63.6863873,6.33020845 63.6393863,6.33020845 L60.5843197,6.33020845 L60.5843197,9.41935017 L64.2503996,9.41935017 C64.2974006,9.41935017 64.3444016,9.41935017 64.3914027,9.46999184 C64.4384037,9.52063351 64.4854047,9.57127518 64.4854047,9.62191684 C64.5324057,9.67255851 64.5324057,9.77384185 64.5324057,9.87512518 C64.5324057,9.97640852 64.5324057,10.1283335 64.5324057,10.2802585 L64.5324057,10.2802585 Z" id="Shape"></path>
                <path d="M74.2146167,10.8373169 C74.2146167,10.8879585 74.2146167,10.9386002 74.1676156,10.9892419 C74.1676156,11.0398835 74.0736136,11.0905252 74.0266126,11.0905252 C73.9326105,11.1411669 73.8386085,11.1411669 73.6976054,11.1411669 L73.0865921,11.1411669 L72.5695808,11.1411669 C72.4285777,11.1411669 72.3345757,11.0905252 72.2405736,11.0905252 C72.1465716,11.0398835 72.0995706,11.0398835 72.0995706,10.9892419 C72.0525696,10.9386002 72.0525696,10.8879585 72.0055685,10.8373169 L71.1125491,8.40651682 C71.018547,8.15330848 70.877544,7.90010014 70.7835419,7.64689181 C70.6895399,7.44432514 70.5485368,7.24175847 70.4545347,7.08983346 C70.3135317,6.93790846 70.1725286,6.83662513 70.0315255,6.78598346 C69.8435214,6.73534179 69.6555173,6.68470012 69.4675132,6.68470012 L68.8094989,6.68470012 L68.8094989,10.8373169 C68.8094989,10.8879585 68.8094989,10.9386002 68.7624979,10.9892419 C68.7154969,11.0398835 68.6684958,11.0905252 68.5744938,11.0905252 C68.4804917,11.1411669 68.3864897,11.1411669 68.2454866,11.1411669 C68.1044836,11.1411669 67.9634805,11.1918085 67.7284754,11.1918085 C67.5404713,11.1918085 67.3524672,11.1918085 67.2114641,11.1411669 C67.070461,11.1411669 66.976459,11.0905252 66.8824569,11.0905252 C66.7884549,11.0398835 66.7414539,11.0398835 66.6944528,10.9892419 C66.6474518,10.9386002 66.6474518,10.8879585 66.6474518,10.8373169 L66.6474518,0.911550017 C66.6474518,0.658341679 66.6944528,0.506416676 66.8354559,0.354491673 C66.976459,0.253208338 67.1174621,0.20256667 67.2584651,0.20256667 L69.8905225,0.20256667 L70.5485368,0.20256667 C70.7365409,0.20256667 70.877544,0.20256667 71.018547,0.253208338 C71.4415562,0.303850006 71.8175644,0.405133341 72.0995706,0.557058344 C72.4285777,0.708983346 72.7105839,0.911550017 72.945589,1.16475835 C73.1805941,1.41796669 73.3685982,1.7218167 73.4626003,2.0256667 C73.6036033,2.38015838 73.6506044,2.73465005 73.6506044,3.19042506 C73.6506044,3.54491673 73.6036033,3.8994084 73.5096013,4.20325841 C73.4155992,4.50710842 73.2745962,4.76031675 73.1335931,5.01352509 C72.945589,5.26673343 72.7575849,5.4693001 72.5225798,5.6212251 C72.2875747,5.77315011 72.0055685,5.92507511 71.6765614,6.02635844 C71.8175644,6.12764178 71.9585675,6.17828345 72.0995706,6.33020845 C72.2405736,6.43149178 72.3815767,6.58341679 72.4755788,6.73534179 C72.5695808,6.88726679 72.7105839,7.08983346 72.8045859,7.29240013 C72.898588,7.4949668 72.99259,7.74817514 73.1335931,8.00138348 L73.9796115,10.1789752 C74.0736136,10.3815419 74.1206146,10.5334669 74.1206146,10.6347502 C74.2146167,10.7360335 74.2146167,10.7866752 74.2146167,10.8373169 L74.2146167,10.8373169 Z M71.5825593,3.4436334 C71.5825593,3.08914172 71.4885573,2.78529172 71.3475542,2.53208338 C71.2065511,2.27887504 70.924545,2.12695004 70.5955378,2.0256667 C70.5015358,1.97502504 70.3605327,1.97502504 70.2195296,1.97502504 L69.6555173,1.97502504 L68.7154969,1.97502504 L68.7154969,5.06416676 L69.7495194,5.06416676 C70.0315255,5.06416676 70.3135317,5.01352509 70.5015358,4.96288342 C70.7365409,4.86160009 70.924545,4.76031675 71.0655481,4.65903342 C71.2065511,4.50710842 71.3005532,4.35518341 71.3945552,4.15261674 C71.5355583,3.8994084 71.5825593,3.69684173 71.5825593,3.4436334 L71.5825593,3.4436334 Z" id="Shape"></path>
                <path d="M81.9227846,7.84945848 C81.9227846,8.40651682 81.8287825,8.9129335 81.6407784,9.3687085 C81.4527743,9.82448351 81.1707682,10.1789752 80.841761,10.4321835 C80.5127538,10.7360335 80.0897446,10.9386002 79.6667354,11.0905252 C79.1967252,11.2424502 78.7267149,11.2930919 78.2097037,11.2930919 C77.8806965,11.2930919 77.5516893,11.2424502 77.2226822,11.1918085 C76.940676,11.1411669 76.6586699,11.0398835 76.4236648,10.9892419 C76.1886597,10.8879585 76.0006556,10.7866752 75.8596525,10.7360335 C75.7186494,10.6347502 75.5776463,10.5334669 75.5306453,10.4828252 C75.4836443,10.4321835 75.4366433,10.2802585 75.3896422,10.1789752 C75.3426412,10.0270502 75.3426412,9.82448351 75.3426412,9.57127518 L75.3426412,9.11550017 C75.3426412,9.01421683 75.3896422,8.9129335 75.3896422,8.81165016 C75.4366433,8.76100849 75.4366433,8.71036683 75.4836443,8.65972516 C75.5306453,8.60908349 75.5776463,8.60908349 75.6246474,8.60908349 C75.7186494,8.60908349 75.8126515,8.65972516 75.9536545,8.76100849 C76.0946576,8.86229183 76.2356607,8.96357516 76.4706658,9.0648585 C76.6586699,9.16614183 76.940676,9.26742517 77.2226822,9.3687085 C77.5046883,9.46999184 77.8336955,9.52063351 78.2097037,9.52063351 C78.4447088,9.52063351 78.6797139,9.46999184 78.867718,9.41935017 C79.0557221,9.3687085 79.2437262,9.26742517 79.3847293,9.16614183 C79.5257323,9.0648585 79.6197344,8.9129335 79.7137364,8.71036683 C79.8077385,8.55844182 79.8077385,8.35587515 79.8077385,8.10266682 C79.8077385,7.84945848 79.7607375,7.64689181 79.6197344,7.44432514 C79.4787313,7.24175847 79.3377283,7.08983346 79.1497242,6.98855013 C78.9617201,6.83662513 78.7267149,6.73534179 78.4447088,6.58341679 C78.2097037,6.48213345 77.9276975,6.33020845 77.6456914,6.17828345 C77.3636852,6.02635844 77.1286801,5.87443344 76.846674,5.72250844 C76.6116689,5.57058344 76.3766637,5.36801676 76.1416586,5.11480843 C75.9536545,4.86160009 75.7656504,4.60839175 75.6716484,4.25390008 C75.5306453,3.95005007 75.4836443,3.54491673 75.4836443,3.08914172 C75.4836443,2.58272505 75.5776463,2.12695004 75.7656504,1.7218167 C75.9536545,1.31668336 76.1886597,1.01283335 76.5176668,0.708983346 C76.846674,0.455775008 77.1756812,0.253208338 77.5986904,0.101283335 C78.0216996,-0.0506416676 78.4447088,-0.101283335 78.914719,-0.101283335 C79.1497242,-0.101283335 79.3847293,-0.101283335 79.6197344,-0.0506416676 C79.8547395,8.32806046e-14 80.0897446,0.0506416676 80.2777487,0.101283335 C80.4657528,0.151925003 80.6537569,0.253208338 80.841761,0.354491673 C80.9827641,0.455775008 81.1237672,0.506416676 81.1707682,0.557058344 C81.2177692,0.607700011 81.2647702,0.658341679 81.2647702,0.708983346 C81.2647702,0.759625014 81.3117713,0.810266682 81.3117713,0.860908349 C81.3117713,0.911550017 81.3117713,1.01283335 81.3587723,1.11411669 L81.3587723,1.46860836 L81.3587723,1.8737417 C81.3587723,1.97502504 81.3587723,2.07630837 81.3117713,2.17759171 C81.3117713,2.22823337 81.2647702,2.32951671 81.2177692,2.32951671 C81.1707682,2.38015838 81.1237672,2.38015838 81.0767661,2.38015838 C81.0297651,2.38015838 80.9357631,2.32951671 80.79476,2.27887504 C80.6537569,2.17759171 80.5127538,2.12695004 80.3247498,2.0256667 C80.1367457,1.92438337 79.9487416,1.82310003 79.6667354,1.77245837 C79.4317303,1.67117503 79.1497242,1.67117503 78.867718,1.67117503 C78.6327129,1.67117503 78.4447088,1.7218167 78.2567047,1.77245837 C78.0687006,1.82310003 77.9276975,1.92438337 77.8336955,2.0256667 C77.7396934,2.12695004 77.6456914,2.27887504 77.5986904,2.38015838 C77.5516893,2.53208338 77.5046883,2.68400838 77.5046883,2.83593339 C77.5046883,3.08914172 77.5516893,3.29170839 77.6926924,3.4436334 C77.8336955,3.64620007 77.9746986,3.79812507 78.2097037,3.8994084 C78.3977078,4.05133341 78.6327129,4.15261674 78.914719,4.30454175 C79.1967252,4.40582508 79.4317303,4.55775008 79.7137364,4.70967509 C79.9957426,4.86160009 80.2307477,5.01352509 80.5127538,5.16545009 C80.79476,5.3173751 81.0297651,5.51994177 81.2177692,5.77315011 C81.4057733,6.02635844 81.5937774,6.27956678 81.7347805,6.63405845 C81.8757835,7.0391918 81.9227846,7.44432514 81.9227846,7.84945848 L81.9227846,7.84945848 Z" id="Shape"></path>
            </g>
        </g>
        <g id="Group" sketch:type="MSLayerGroup" transform="translate(39.000000, 0.000000)">
            <path d="M61.8471653,6.7833887 C62.196797,6.02967885 63.0903,5.84125138 63.8284112,5.91662237 C64.4499785,6.2934773 65.0715458,6.7833887 65.1880897,7.53709856 C65.4988734,9.11988926 65.2269377,10.7403654 65.1103938,12.3231561 C64.877306,14.7350277 64.5276744,17.2599557 62.9737561,19.2572868 L63.1679959,19.2572868 C64.5665224,19.3703433 65.8873529,19.8225692 66.9362478,20.727021 C66.9750958,20.5009081 67.0139437,20.0863677 67.0527917,19.8602547 C67.5578151,17.2976412 69.1505814,15.1495681 70.6656517,13.0391805 C71.7145466,11.6825028 72.7634415,9.83591362 74.7835353,9.79822813 C75.5604944,10.0997121 76.3763015,10.7780509 76.1820618,11.6825028 C75.4827985,14.3204873 73.7734884,16.5439313 72.4138098,18.8804319 C71.4814589,20.5762791 69.8498446,21.7445293 68.567862,23.2519491 C68.9951896,24.7216833 69.0340375,26.2667885 68.6844059,27.7742082 C69.3059732,28.1510631 69.9663885,28.5279181 70.5102599,29.0178295 C69.7721487,29.0932004 69.1505814,28.67866 68.5290141,28.3394906 C68.4513182,28.4525471 68.2959263,28.754031 68.2182304,28.8670875 C68.7621018,29.3569989 69.3836691,29.7338538 69.9663885,30.2237652 C69.1894294,30.5252492 68.60671,29.8469103 67.9851427,29.4700554 C67.4801192,30.4121927 66.9750958,31.3166445 66.3923764,32.2210963 C72.3749619,34.180742 78.2021556,36.9317829 82.9416064,41.0018162 C77.5028923,37.5724363 71.4814589,35.0851938 65.2269377,33.4647176 C64.9938499,33.9923145 64.877306,34.6706534 64.2945867,34.9721373 C63.4787796,35.4243632 62.4687327,35.0098228 61.8860133,34.4068549 C61.4198378,33.9169435 61.5363817,33.2009192 61.4975337,32.5602658 C60.6040307,32.3718383 59.7105277,32.1457254 58.7781767,32.0326689 C58.2343053,32.4095238 57.7292818,33.0124917 56.9523226,32.8994352 C55.9422757,33.0501772 55.1653166,32.2964673 54.9710768,31.429701 C52.6790473,31.0905316 50.3870178,30.9021041 48.0949883,30.7136766 C48.1338362,31.5427575 48.1338362,32.4472093 47.5511169,33.0878627 C46.6576138,34.180742 44.9094557,34.105371 43.744017,33.5777741 C42.6174262,32.9748062 42.1900987,31.655814 42.1900987,30.4875637 C40.6750283,30.5252492 39.159958,30.5629347 37.6448876,30.5629347 C37.6448876,31.7688704 37.2564081,33.1632337 36.0909693,33.803887 C34.8866826,34.3691694 33.1773725,34.4068549 32.2450215,33.3516611 C31.6623021,32.7110078 31.7011501,31.8065559 31.7011501,30.9774751 C29.5645124,31.203588 27.4278747,31.505072 25.330085,31.8442414 C25.4077809,32.5602658 25.6020207,33.3516611 25.1746932,33.9923145 C24.5919738,35.0098228 23.2711432,35.3866777 22.1445525,35.3113068 C20.8625699,35.1605648 20.0079148,34.105371 19.5805873,33.0124917 C18.1432128,33.3893466 16.7058384,33.7662016 15.2684639,34.1430565 C15.6569435,34.9721373 16.0065751,35.8765891 15.7346394,36.781041 C15.3850078,38.6653156 12.471411,39.8335659 11.0340365,38.2884607 C10.3736213,37.6478073 10.2959253,36.70567 10.2570774,35.8389037 C6.72191323,37.2332669 3.3421409,38.9291141 0.195456322,40.9641307 C3.30329295,38.1754042 7.03269689,36.1403876 10.8397968,34.4068549 C10.1405335,33.4270321 9.55781415,32.3718383 8.89739887,31.35433 C8.54776725,31.7311849 8.23698358,32.1080399 7.84850401,32.4848948 C7.69311218,31.580443 8.93624682,30.8644186 8.27583154,29.9976523 C7.80965605,30.3745072 7.42117647,30.7513621 6.95500098,31.1282171 C6.48882548,30.3368217 7.49887239,29.9222813 7.92619992,29.3946844 C7.84850401,29.2062569 7.73196013,28.8670875 7.69311218,28.67866 C7.18808872,28.980144 6.68306527,29.7338538 6.06149795,29.1685714 C6.52767344,28.7917165 6.99384893,28.4148616 7.46002443,28.0380066 C6.95500098,25.9653045 7.11039281,23.779546 7.96504788,21.7822148 C7.46002443,21.2169324 6.91615302,20.5762791 6.13919386,20.3878516 C4.8183633,20.0863677 3.65292457,20.953134 2.64287766,21.6314729 C4.0802521,21.3676744 5.47877858,22.1213843 6.02264999,23.4403765 C6.02264999,22.6112957 6.21688978,21.7068439 7.07154485,21.2546179 C6.68306527,22.3851827 6.52767344,23.553433 6.60536936,24.7216833 C6.76076119,26.4552159 5.71186633,28.3394906 3.96370823,28.829402 C1.90476646,29.2439424 0.117760406,27.1712403 0.156608364,25.2869657 C0.156608364,23.0258361 1.94361442,21.103876 4.00255619,20.1994241 C5.5564745,19.4833998 7.5765683,19.0688594 8.97509478,20.2747951 C10.4901651,18.503577 12.8598906,17.6368106 15.190768,17.9382946 C15.4627037,16.9961573 16.0842711,16.1670764 16.9777741,15.7148505 C19.1921077,14.4712292 22.1834004,14.2451163 24.397734,15.677165 C26.1070442,16.7700443 26.7674594,19.3326578 25.4466289,20.953134 C24.5142779,22.0460133 22.8438157,21.9706423 21.639529,21.4430454 C20.5129382,20.9908195 19.8913709,19.9356257 19.1144118,19.1065449 C18.6093883,18.5412625 17.948973,18.1644075 17.3274057,17.7121816 C18.2986047,17.5237542 19.0755638,18.0890365 19.6194352,18.8050609 C19.1532597,17.4106977 19.6582832,15.8655925 21.0179617,15.1495681 C19.813675,15.3003101 18.4151485,15.3379956 17.5604935,16.2801329 C16.9777741,16.8454153 16.9389261,17.6744961 16.8612302,18.428206 C18.9978679,19.3326578 20.707178,21.028505 21.7172249,23.0635216 L23.3099912,23.0635216 C23.2711432,23.2142636 23.2322953,23.5157475 23.2322953,23.628804 C22.8049678,23.628804 22.4164882,23.628804 21.9891606,23.6664895 C22.0668566,23.9302879 22.1445525,24.1564009 22.2222484,24.4201993 C22.7661198,24.4578848 23.3099912,24.5332558 23.8538626,24.6086268 L23.8150147,25.1739092 C23.3488392,25.1362237 22.8826637,25.0985382 22.4164882,25.0231672 C22.4553361,25.2115947 22.57188,25.6261351 22.6495759,25.8145626 C23.1934473,26.0406755 23.8150147,26.229103 24.2034942,26.6813289 C23.8538626,26.6436434 23.1545994,26.5305869 22.8049678,26.4929014 C23.0380555,27.6611517 23.1934473,28.829402 23.465383,29.9976523 C22.7661198,30.1483942 22.0280086,30.1483942 21.3287454,30.1860797 C20.1244587,31.1659025 20.1633066,32.8617497 20.8625699,34.105371 C20.9791137,33.6154596 21.0956576,33.1255482 21.2122015,32.5979513 C21.3675933,32.5979513 21.7172249,32.5602658 21.8726168,32.5602658 C21.678377,33.3139756 21.639529,34.105371 21.8726168,34.8967663 C22.3776402,34.8967663 22.8826637,34.8590808 23.3876871,34.7837099 C23.504231,34.0676855 23.3876871,33.3893466 23.3488392,32.6733223 C24.2811902,32.4848948 24.0481024,33.6531451 24.3200381,34.1430565 C25.1358452,33.0124917 24.9027575,31.1659025 23.465383,30.6383056 C23.543079,30.4498782 23.504231,30.0730233 23.8150147,30.1107087 C26.301284,29.8469103 28.7098573,29.2439424 31.1961266,29.0178295 C30.885343,27.6611517 30.6134073,26.304474 30.3803195,24.9477962 C29.6422083,25.2492802 28.8264012,25.8145626 28.127138,25.1362237 C28.8264012,24.7593688 29.5256645,24.4201993 30.2637756,24.1187154 C30.2249277,23.704175 30.1472318,23.2896346 30.1083838,22.8750941 C29.059489,23.0258361 27.7775064,23.9679734 26.8840033,22.9504651 C27.9328982,22.5359247 28.981793,22.2721262 30.0695359,22.0083278 C30.0695359,21.7068439 30.0306879,21.1415615 30.0306879,20.8400775 C28.9429451,20.953134 27.7386584,21.6314729 26.8063074,20.7647065 C27.8552023,20.3501661 28.981793,20.1994241 30.1083838,20.0109967 C30.1860797,19.5964563 30.2249277,19.1442303 30.3026236,18.6920044 C28.2048339,15.827907 28.127138,12.0593577 28.8652492,8.74303433 C31.0407348,9.49674419 33.2550684,10.2881395 35.469402,10.9664784 C36.1298173,10.627309 36.8290805,10.2881395 37.5283438,10.0620266 C39.9757651,9.30831672 42.6174262,9.76054264 44.8317598,10.9664784 C45.0648476,10.8911074 45.569871,10.7403654 45.8029588,10.6649945 C47.6676607,10.0620266 49.5323627,9.4213732 51.3582167,8.78071982 C52.1351759,12.0970432 51.9797841,15.7902215 49.9985382,18.7296899 C50.0762341,19.1819158 50.1150821,19.5964563 50.192778,20.0486822 C51.3193688,20.2371096 52.4459595,20.3501661 53.4948544,20.802392 C52.5236555,21.6314729 51.2805208,20.953134 50.192778,20.8400775 L50.192778,22.0083278 C51.2416729,22.2721262 52.3294157,22.4982392 53.3006146,22.9127796 C52.6013514,24.0433444 51.2028249,22.9127796 50.15393,22.8750941 C50.0762341,23.2896346 50.0373862,23.6664895 49.9596902,24.0810299 C50.7366494,24.4201993 51.5524565,24.7216833 52.1740238,25.3246512 C51.3582167,25.7768771 50.5812576,25.2492802 49.8819943,24.9477962 C49.6877545,26.229103 49.4158188,27.4727243 49.1438831,28.7163455 C51.3193688,28.904773 53.4560064,29.1685714 55.5926441,29.5077409 C55.748036,28.0756921 55.9811237,26.6059579 56.3307553,25.2115947 C55.6314921,25.1362237 54.815685,25.1739092 54.3106615,24.6086268 C55.1264686,24.3448283 56.4861472,25.1739092 56.8357788,24.0433444 C56.1365155,23.8549169 55.2430125,23.9302879 54.815685,23.2519491 C55.5149482,23.2896346 56.2530594,23.402691 56.9523226,23.478062 C57.6904338,22.0460133 58.8170246,20.802392 60.2543991,19.9356257 C60.2543991,18.0513511 59.8270715,16.1670764 60.2155511,14.2828018 C60.5263348,11.8709302 60.7205746,9.19526024 61.8471653,6.7833887 L61.8471653,6.7833887 Z M62.196797,7.46172757 C61.3421419,9.68517165 60.9925103,12.0593577 60.7594225,14.3958583 C60.6428786,16.1293909 60.4874868,17.9759801 61.3809898,19.5587708 C61.7306215,19.4457143 62.0802531,19.3326578 62.3910367,19.2196013 L62.3133408,19.0688594 C63.4399316,17.7498671 63.9449551,16.0540199 64.2168908,14.3958583 C64.5665224,12.2477852 64.7996101,10.0243411 64.7607622,7.8385825 C64.7996101,7.00950166 64.1391948,6.44421927 63.4399316,6.18042082 C62.9349081,6.51959025 62.3910367,6.85875969 62.196797,7.46172757 L62.196797,7.46172757 Z M29.2537287,9.91128461 C28.9429451,12.1724142 29.0983369,14.6596567 30.6134073,16.5062458 C31.0018868,16.4685604 31.0018868,15.9786489 31.1961266,15.7148505 C31.9342378,14.1320598 33.0996766,12.7753821 34.4593551,11.6448173 C32.7500449,11.1172204 31.0018868,10.476567 29.2537287,9.91128461 L29.2537287,9.91128461 Z M46.3856781,11.3433333 C46.1914383,11.4187043 45.8029588,11.5694463 45.608719,11.6448173 C47.0460934,13.076866 48.4446199,14.6219712 49.1438831,16.5439313 C49.299275,16.4308749 49.4158188,16.3178184 49.5712107,16.2424474 C50.7754974,14.3581728 51.0085851,12.0593577 50.6589535,9.91128461 C49.2215791,10.3635105 47.8230526,10.8911074 46.3856781,11.3433333 L46.3856781,11.3433333 Z M72.1807221,12.0593577 C70.1606283,14.8480842 67.5966631,17.7875526 67.674359,21.4053599 L67.635511,21.4053599 C67.713207,21.5184164 67.8297508,21.7822148 67.9074467,21.9329568 C69.6167569,21.4807309 70.7044997,20.0486822 71.7145466,18.7296899 C73.190769,16.7323588 74.5504475,14.6219712 75.4439506,12.3231561 C75.5993424,11.7578738 75.9101261,10.7780509 75.2108628,10.4388815 L75.055471,10.476567 L74.9777751,10.250454 C73.6957925,9.87359911 72.8411374,11.2302769 72.1807221,12.0593577 L72.1807221,12.0593577 Z M34.1485714,12.9638095 C32.1284776,14.8103987 31.0407348,17.4483832 30.6911032,20.0863677 C31.1184307,20.0486822 31.5457583,20.0109967 31.9730858,19.9733112 C33.2550684,19.9733112 34.498203,20.0863677 35.7413377,20.4632226 C34.498203,20.4632226 33.2550684,20.4632226 32.0507817,20.6516501 C31.5846062,20.727021 31.1184307,20.802392 30.6911032,20.877763 L30.6911032,22.0083278 C31.1961266,21.9329568 31.6623021,21.8575858 32.1673256,21.7822148 C33.3716123,21.7068439 34.575899,21.7445293 35.7801857,22.0460133 C34.6147469,22.1967553 33.4493082,22.2344408 32.3227174,22.4605537 C31.817694,22.5736102 31.2738226,22.6866667 30.7687991,22.8374086 C30.846495,23.2142636 30.885343,23.5911185 30.9630389,23.9302879 C31.5069103,23.779546 32.0507817,23.628804 32.5946531,23.478062 L32.5946531,23.402691 C33.5658521,23.2519491 34.575899,23.1765781 35.5470979,23.2519491 C34.6535949,23.5911185 33.6823959,23.779546 32.7888929,24.0810299 L32.7888929,24.0810299 C32.2450215,24.3071429 31.7011501,24.4955703 31.1572787,24.7216833 C31.5457583,25.927619 32.0507817,27.0581838 32.7500449,28.1133776 C32.9442847,28.5279181 33.3716123,28.754031 33.7989398,28.8670875 C33.7600919,28.67866 33.7212439,28.3018051 33.7212439,28.1133776 C34.3428112,28.1510631 35.0032265,28.1887486 35.6636418,28.2264341 C36.2852091,28.7917165 37.1787121,28.5656035 37.9556713,28.5656035 C39.5095896,28.4902326 41.0635079,28.4902326 42.5785783,28.4902326 C43.4332333,28.4902326 44.1713445,28.0003212 44.9871517,27.8872647 C45.4533271,27.8495792 46.1914383,27.7365227 46.3079822,28.4148616 C46.463374,28.4525471 46.7741577,28.5656035 46.8907016,28.6409745 C47.5122689,27.8118937 48.0561403,26.9074419 48.4446199,25.9653045 C48.6388597,25.5884496 48.7554036,25.1739092 48.8719474,24.7593688 C47.5122689,23.8926024 45.8806547,23.704175 44.3655843,23.2142636 C45.9583506,23.0635216 47.5511169,23.3650055 49.0661872,23.8549169 C49.1438831,23.478062 49.1827311,23.1388926 49.260427,22.7620377 C47.6288128,22.3098117 45.9583506,22.1590698 44.2878884,21.9706423 C45.9583506,21.5561019 47.6676607,21.7068439 49.3381229,21.9329568 C49.299275,21.6691584 49.260427,21.103876 49.260427,20.8400775 C47.6676607,20.3878516 45.9971986,20.3878516 44.3267364,20.3878516 C45.9195026,19.8602547 47.6288128,19.8602547 49.260427,19.9733112 C48.9884913,18.126722 48.4446199,16.2801329 47.3568771,14.7350277 C45.9583506,12.5869546 43.6274731,10.8911074 40.985812,10.5896235 C38.4995427,10.325825 35.9355775,11.2679623 34.1485714,12.9638095 L34.1485714,12.9638095 Z M9.01394274,21.2546179 C8.35352746,22.3098117 7.92619992,23.5157475 7.77080809,24.7593688 C7.69311218,25.7768771 7.80965605,26.8320709 8.00389584,27.8495792 C8.35352746,27.8118937 9.0527907,27.7742082 9.40242232,27.7742082 C8.85855091,28.1133776 7.92619992,28.3394906 8.39237542,29.1308859 C8.89739887,28.980144 9.44127028,28.8670875 9.94629373,28.754031 C9.48011823,29.2062569 8.47007133,29.4700554 8.89739887,30.2991362 C9.3247264,30.1107087 9.7909019,29.8845958 10.2182294,29.7338538 C9.90744577,30.0730233 9.59666211,30.4121927 9.28587844,30.7513621 C9.94629373,31.7311849 10.7232529,32.6733223 11.7721477,33.2762901 C12.7821946,33.2762901 13.8699375,33.3893466 14.8022885,32.9748062 C16.3950547,32.4095238 17.987821,31.9196124 19.6194352,31.429701 C20.0856107,30.5629347 20.9014178,29.9599668 21.8337688,29.5831118 C22.0668566,28.5279181 22.1445525,27.3973533 22.0280086,26.304474 C21.6006811,26.2667885 21.2122015,26.229103 20.7848739,26.1914175 L20.7848739,25.927619 C21.1733535,25.8899336 21.5618331,25.8522481 21.9891606,25.8145626 C21.9114647,25.6261351 21.7949209,25.2869657 21.7560729,25.0985382 C21.2510494,25.1362237 20.707178,25.1739092 20.2021546,25.2115947 C20.6683301,24.9101107 21.1345056,24.7216833 21.639529,24.4955703 C21.5618331,24.3448283 21.4064413,24.0056589 21.3675933,23.8549169 C20.8237219,24.0056589 20.2798505,24.1187154 19.7359791,24.2317719 C20.1633066,23.8926024 20.6294821,23.553433 21.1345056,23.2519491 C19.8913709,20.953134 17.6381894,18.9934884 14.9188323,18.6920044 C12.5491069,18.3151495 10.2959253,19.4833998 9.01394274,21.2546179 L9.01394274,21.2546179 Z M57.2631063,23.6664895 C58.2731532,23.9679734 59.2832001,24.3448283 60.1767031,24.9854817 C59.1666562,24.6463123 58.1566093,24.3448283 57.0688665,24.1564009 C56.9911706,24.3071429 56.8746267,24.6463123 56.7969308,24.7970543 C57.8846736,25.0231672 58.9335685,25.3246512 59.8659195,25.927619 C58.8170246,25.7015061 57.7292818,25.4377076 56.641539,25.3246512 C56.3696033,26.6059579 56.4084512,27.9626357 56.6803869,29.2439424 C57.6127379,29.0178295 58.3896971,29.5831118 58.9335685,30.2614507 C61.0313582,30.9021041 63.2845398,31.0151606 65.3046336,31.9196124 C66.2369846,31.1659025 67.0139437,30.2614507 67.5966631,29.2062569 C66.6643121,28.603289 65.6931132,28.1510631 64.7219142,27.6611517 C65.809657,27.8118937 66.8585519,28.1887486 67.8297508,28.7163455 C67.9074467,28.4902326 67.9851427,28.2641196 68.0628386,28.0380066 C67.1693355,27.5480952 66.1981366,27.1712403 65.2657856,26.7190144 C66.3146805,26.8320709 67.2858794,27.1712403 68.2570784,27.5480952 C68.567862,25.8145626 68.5290141,23.9302879 67.5966631,22.3474972 C66.5866162,20.5385936 64.3334346,19.3703433 62.196797,19.8225692 C60.0213113,20.2371096 58.2731532,21.8199003 57.2631063,23.6664895 L57.2631063,23.6664895 Z M43.4720813,29.3946844 C42.850514,30.1483942 42.8893619,31.1659025 42.9282099,32.0703544 C43.3555374,31.5427575 43.5886252,30.5629347 44.5209762,30.7890476 C44.2101925,31.505072 43.705169,32.1834109 43.6663211,32.9748062 C43.8605609,33.5024031 44.5986721,33.4647176 45.0648476,33.6908306 C45.5310231,33.0878627 45.6475669,32.3341528 45.8806547,31.6181285 C46.9295495,31.6181285 46.1914383,32.8240642 46.3079822,33.3893466 C46.9295495,32.7863787 47.5899648,32.0703544 47.434573,31.1282171 C47.395725,29.9222813 46.54107,28.980144 45.569871,28.3018051 C44.8317598,28.5279181 43.9382568,28.67866 43.4720813,29.3946844 L43.4720813,29.3946844 Z M33.4881561,33.6531451 C33.5270041,33.0124917 32.9831327,32.0326689 33.9154837,31.7688704 C34.1874194,32.4472093 34.0708755,33.4647176 34.8089867,33.8415725 C35.2751622,33.803887 35.8578816,33.6908306 36.1298173,33.2762901 C36.1298173,32.4472093 35.6247938,31.7688704 35.2751622,31.0905316 C36.2463611,30.7890476 36.4406009,31.8065559 36.8679285,32.3718383 C36.9067764,31.429701 36.9844723,30.4121927 36.3240571,29.6207973 C35.8190336,28.829402 34.7701388,28.6409745 33.9154837,28.8670875 C32.0896297,29.7338538 31.778846,32.4848948 33.4881561,33.6531451 L33.4881561,33.6531451 Z M55.7868839,32.1834109 C55.9811237,31.8442414 56.2142115,31.4673865 56.4472992,31.1282171 C56.641539,31.655814 56.0976676,32.8240642 56.9911706,32.7486932 C57.9623696,32.8240642 57.4184981,31.580443 57.57389,31.0528461 C57.7292818,31.3166445 58.0789134,31.8819269 58.2731532,32.1457254 C58.8558726,31.0528461 58.428545,29.8092248 57.3019543,29.2816279 C56.2142115,29.8469103 55.1653166,30.9397896 55.7868839,32.1834109 L55.7868839,32.1834109 Z M61.8083174,33.2386047 C62.196797,33.0878627 62.6241245,32.9748062 63.0126041,32.8240642 C62.6629724,33.2762901 62.3133408,33.7285161 61.9637092,34.180742 C62.157949,34.3314839 62.5852765,34.6329679 62.8183643,34.7837099 C63.1679959,34.3691694 63.4787796,33.954629 63.8284112,33.5777741 C63.8672591,34.03 63.7507153,34.4445404 63.6341714,34.8967663 C64.3334346,34.4822259 64.916154,33.803887 64.7607622,32.9748062 C64.7996101,32.1834109 63.9061071,31.505072 63.1291479,31.7311849 C62.3910367,31.8819269 62.119101,32.6356368 61.8083174,33.2386047 L61.8083174,33.2386047 Z M11.53906,33.9169435 C10.9951886,34.8967663 10.606709,36.0650166 11.0340365,37.1578959 C11.2671243,37.9492913 12.0829314,38.3261462 12.7821946,38.6653156 C12.5879549,38.0623477 11.8109957,37.3840089 12.5102589,36.8187265 C12.8987385,37.4216944 13.3260661,38.0246622 13.8699375,38.5145736 C14.258417,38.2884607 14.6468966,38.0246622 14.9965282,37.7231783 C14.9965282,36.856412 14.1030252,36.3665006 13.5591538,35.8389037 C14.2195691,35.1982503 14.8022885,36.0273311 15.3850078,36.3288151 C15.0742242,35.4997342 14.7634405,34.5575969 13.9087854,34.105371 C13.2095222,33.5777741 12.3160192,33.6531451 11.53906,33.9169435 L11.53906,33.9169435 Z" id="Animal-Fill" fill="#565656" sketch:type="MSShapeGroup"></path>
            <g id="cat" transform="translate(32.041860, 9.371429)" sketch:type="MSShapeGroup">
                <path d="M10.8086535,7.43630122 C11.0028933,6.90870432 11.6633086,6.75796235 12.1294841,6.4941639 C12.4791157,6.79564784 12.8675953,7.09713178 13.2172269,7.39861573 C13.0229871,7.92621262 13.0229871,8.71760797 12.3237239,8.86834994 C11.5079167,9.01909192 10.5755658,8.26538206 10.8086535,7.43630122 L10.8086535,7.43630122 Z" id="cat-right-eye" fill="#565656"></path>
                <path d="M6.06920266,10.8656811 C7.11809752,10.5265116 8.24468829,10.6018826 9.29358315,10.9033666 C8.94395153,11.5063344 8.516624,11.9962458 8.08929646,12.5615282 C8.43892808,13.3529236 9.60436682,13.0514396 10.3036301,13.0891251 C9.68206273,14.1066334 8.55547196,13.5413511 7.66196893,13.3152381 C6.80731386,13.5413511 5.68072308,13.9558915 5.09800371,12.9760687 C5.83611491,12.9383832 6.65192202,12.9760687 7.31233731,12.5992137 C6.80731386,12.0716168 6.3022904,11.5440199 6.06920266,10.8656811 L6.06920266,10.8656811 Z" id="cat-nose" fill="#565656"></path>
                <path d="M2.76712625,7.43630122 C2.96136603,6.90870432 3.62178132,6.75796235 4.08795681,6.4941639 C4.43758843,6.79564784 4.82606801,7.09713178 5.21454759,7.39861573 C4.98145984,7.92621262 4.98145984,8.67992248 4.32104456,8.86834994 C3.46638949,9.01909192 2.57288646,8.26538206 2.76712625,7.43630122 L2.76712625,7.43630122 Z" id="cat-left-eye" fill="#565656"></path>
                <path d="M5.33109146,0.841339978 C7.93390463,-0.47765227 11.235981,-0.251539313 13.5668585,1.44430786 C13.3337708,1.51967885 12.8287473,1.67042082 12.5956596,1.74579181 C10.4201739,0.539856035 7.7785128,0.125315615 5.33109146,0.841339978 L5.33109146,0.841339978 Z" id="Shape" fill="#49C8F4"></path>
                <path d="M2.10671096,3.59238095 C3.89371702,1.89653378 6.45768224,0.954396456 8.94395153,1.29356589 C11.5856127,1.63273533 13.9164901,3.29089701 15.3150166,5.4389701 C16.4027594,7.0217608 16.9466308,8.83066445 17.2185665,10.6772536 C15.5481044,10.5641971 13.8776422,10.5641971 12.2848759,11.091794 C13.9164901,11.091794 15.6258003,11.091794 17.2185665,11.5440199 C17.2574145,11.8078184 17.2962625,12.3731008 17.2962625,12.6368992 C15.6258003,12.4107863 13.8776422,12.2600443 12.2460279,12.6745847 C13.9164901,12.8630122 15.5869523,13.0137542 17.2185665,13.4659801 C17.1408706,13.842835 17.0631747,14.1820044 17.0243268,14.5588594 C15.5092564,14.068948 13.9164901,13.767464 12.3237239,13.918206 C13.8387942,14.3704319 15.4704084,14.5965449 16.830087,15.4633112 C16.7135431,15.8778516 16.5969992,16.292392 16.4027594,16.669247 C15.7811921,17.5736988 15.0430809,18.3650941 14.2661218,19.1564895 C14.1884258,18.4781506 13.4503146,18.5912071 12.9452912,18.6288926 C12.1294841,18.7419491 11.3913729,19.2318605 10.5367178,19.2318605 C8.98279949,19.2318605 7.42888118,19.2318605 5.91381083,19.3072315 C5.13685167,19.3072315 4.24334864,19.4956589 3.62178132,18.968062 C2.33979871,17.7998117 1.44629568,16.3300775 0.747032441,14.7849723 C1.67938343,14.4834884 2.61173441,14.2573754 3.50523744,13.9558915 C2.49519054,13.8805205 1.5239916,13.993577 0.552792652,14.1066334 C0.475096736,13.8051495 0.397400821,13.4659801 0.319704905,13.1644961 C1.44629568,12.9383832 2.61173441,12.9006977 3.77717315,12.7499557 C2.61173441,12.4484718 1.36859977,12.4484718 0.164313074,12.4861573 C0.125465116,12.1093023 0.0866171585,11.7324474 0.0477692007,11.317907 C1.25205589,11.1294795 2.49519054,11.1294795 3.73832519,11.1294795 C2.5340385,10.7526246 1.25205589,10.6395681 -0.0299267149,10.6395681 C-0.0299267149,8.11464009 0.708184483,5.66508306 2.10671096,3.59238095 L2.10671096,3.59238095 Z M2.76712625,7.43630122 C2.57288646,8.26538206 3.46638949,9.01909192 4.32104456,8.86834994 C4.98145984,8.67992248 4.98145984,7.92621262 5.21454759,7.39861573 C4.82606801,7.09713178 4.47643639,6.79564784 4.08795681,6.4941639 C3.62178132,6.75796235 2.96136603,6.90870432 2.76712625,7.43630122 L2.76712625,7.43630122 Z M10.8086535,7.43630122 C10.6144137,8.26538206 11.5079167,9.01909192 12.3237239,8.90603544 C13.0229871,8.75529347 13.0229871,7.96389812 13.2172269,7.43630122 C12.8287473,7.13481728 12.4791157,6.83333333 12.1294841,6.53184939 C11.6244606,6.75796235 11.0028933,6.90870432 10.8086535,7.43630122 L10.8086535,7.43630122 Z M6.06920266,10.8656811 C6.34113836,11.5440199 6.84616181,12.0716168 7.31233731,12.6368992 C6.61307407,13.0137542 5.83611491,12.9760687 5.09800371,13.0137542 C5.68072308,13.993577 6.7684659,13.5790365 7.66196893,13.3529236 C8.55547196,13.5790365 9.68206273,14.1443189 10.3036301,13.1268106 C9.60436682,13.0514396 8.47777604,13.3906091 8.08929646,12.5992137 C8.516624,12.0716168 8.94395153,11.5440199 9.29358315,10.941052 C8.20584034,10.6018826 7.11809752,10.5265116 6.06920266,10.8656811 L6.06920266,10.8656811 Z" id="Shape" fill="#49C8F4"></path>
                <path d="M13.5280106,2.2733887 C13.7222503,2.19801772 14.1107299,2.04727575 14.3049697,1.97190476 C15.7423441,3.3285825 16.791239,5.02442968 17.4905022,6.87101883 C17.3351104,6.9840753 17.2185665,7.05944629 17.0631747,7.17250277 C16.3639115,5.25054264 14.965385,3.70543743 13.5280106,2.2733887 L13.5280106,2.2733887 Z" id="Shape" fill="#49C8F4"></path>
            </g>
            <g id="bunny" transform="translate(60.223256, 5.857143)" sketch:type="MSShapeGroup">
                <path d="M0.652710573,16.5657254 C1.35197381,16.4149834 1.85699726,17.5455482 1.11888607,17.8847176 C0.225383037,18.4876855 -0.590424077,16.5657254 0.652710573,16.5657254 L0.652710573,16.5657254 Z" id="bunny-left-eye" fill="#565656"></path>
                <path d="M5.00368184,19.3921373 C4.34326656,18.7514839 5.08137776,18.1485161 5.780641,18.1485161 C5.93603283,18.3369435 6.20796854,18.7891694 6.36336037,18.9775969 C6.05257671,19.3921373 5.46985734,20.0327907 5.00368184,19.3921373 L5.00368184,19.3921373 Z" id="bunny-right-eye" fill="#565656"></path>
                <path d="M1.2742779,19.5051938 C2.0123891,19.5428793 2.67280438,19.8066777 3.25552374,20.2212182 C2.82819621,20.5227021 2.40086867,20.7865006 1.97354114,21.0879845 C2.40086867,21.3140975 2.86704417,21.5402104 3.33321966,21.7663234 C2.71165234,22.1054928 2.16778093,21.6532669 1.66275748,21.276412 C1.04119015,21.3140975 0.497318741,21.0879845 0.147687121,20.5603876 C0.652710573,20.6734441 1.15773402,20.7488151 1.66275748,20.8618715 C1.50736564,20.4473311 1.39082177,19.9574197 1.2742779,19.5051938 L1.2742779,19.5051938 Z" id="bunny-nose" fill="#565656"></path>
                <path d="M8.92732558,7.78500554 C9.93737248,6.16452935 11.1028112,4.46868217 12.8121214,3.48885936 C13.4336887,3.07431894 14.2106478,3.30043189 14.5602795,3.94108527 C12.5401857,3.94108527 11.4912908,5.78767442 10.4423959,7.18203765 C8.92732558,9.29242525 7.33455931,11.4404983 6.82953586,14.0031118 C6.82953586,11.7796678 7.83958276,9.70696567 8.92732558,7.78500554 L8.92732558,7.78500554 Z" id="Shape" fill="#49C8F4"></path>
                <path d="M3.60515536,0.0594795127 C4.07133086,0.0594795127 4.61520227,-0.0535769657 4.88713797,0.360963455 C5.780641,1.49152824 5.89718487,2.96126246 5.97488079,4.3179402 C6.05257671,7.4458361 5.62524917,10.724474 3.7605472,13.3624585 C3.56630741,13.3624585 3.13897987,13.400144 2.94474008,13.400144 L2.75050029,13.400144 C4.26557065,11.4028128 4.61520227,8.87788483 4.88713797,6.46601329 C5.00368184,4.88322259 5.27561755,3.2627464 4.96483389,1.6799557 C4.84829001,0.96393134 4.22672269,0.474019934 3.60515536,0.0594795127 L3.60515536,0.0594795127 Z" id="Shape" fill="#49C8F4"></path>
                <path d="M11.9574663,6.20221484 C12.6178816,5.373134 13.4725366,4.01645626 14.7156713,4.43099668 L14.7933672,4.65710963 C14.5214315,7.82269103 13.0063611,10.799845 10.9862673,13.2870875 C10.0927643,14.3799668 8.92732558,15.3974751 7.45110319,15.5859025 C7.37340727,11.9304097 9.89852453,8.99094131 11.9574663,6.20221484 L11.9574663,6.20221484 Z" id="Shape" fill="#49C8F4"></path>
                <path d="M3.21667579,0.323277962 C3.95478698,0.587076412 4.61520227,1.1523588 4.53750635,1.98143965 C4.57635431,4.16719823 4.34326656,6.3906423 3.99363494,8.53871539 C3.68285128,10.1968771 3.17782783,11.8927243 2.09008501,13.2117165 C1.58506156,12.0057807 1.19658198,10.7621595 1.15773402,9.48085271 C1.00234219,6.31527132 1.42966973,3.03663344 3.21667579,0.323277962 L3.21667579,0.323277962 Z" id="Shape" fill="#49C8F4"></path>
            </g>
            <g id="dog" transform="translate(7.720930, 20.695238)" sketch:type="MSShapeGroup">
                <path d="M8.40218878,2.51902547 C7.54753371,2.17985604 8.09140512,1.3130897 8.55758061,0.89854928 C8.90721223,1.04929125 9.29569181,1.16234773 9.68417139,1.3130897 C9.91725914,2.10448505 9.29569181,3.08430786 8.40218878,2.51902547 L8.40218878,2.51902547 Z" id="dog-right-eye" fill="#565656"></path>
                <path d="M5.44974399,5.4961794 C6.11015927,4.9685825 6.96481434,4.74246955 7.81946942,4.70478405 C7.66407758,5.27006645 7.50868575,5.83534884 7.31444596,6.36294574 C7.93601329,6.32526024 8.51873266,6.17451827 9.14029998,6.06146179 C8.79066836,6.81517165 7.93601329,6.85285714 7.19790209,6.85285714 C6.69287864,7.38045404 6.03246336,7.606567 5.29435216,7.41813953 C5.79937561,7.0789701 6.34324702,6.77748616 6.84827047,6.47600221 C6.38209498,6.17451827 5.91591948,5.83534884 5.44974399,5.4961794 L5.44974399,5.4961794 Z" id="dog-nose" fill="#565656"></path>
                <path d="M3.04117061,4.62941307 C1.95342779,4.4409856 2.30305941,3.4234773 2.92462673,2.8958804 C3.31310631,3.04662237 3.70158589,3.15967885 4.05121751,3.27273533 C4.09006547,3.9133887 3.93467364,4.89321152 3.04117061,4.62941307 L3.04117061,4.62941307 Z" id="dog-left-eye" fill="#565656"></path>
                <path d="M1.29301251,0.559379845 C2.14766758,0.0694684385 3.27425835,-0.194330011 4.12891343,0.484008859 C5.9936154,1.87837209 6.07131132,4.85552602 4.517393,6.51368771 C3.74043385,7.38045404 2.26421145,7.49351052 1.40955638,6.73980066 C0.593749267,6.06146179 0.321813563,5.04395349 0.0498778581,4.10181617 C0.205269689,2.85819491 0.632597225,1.65225914 1.29301251,0.559379845 L1.29301251,0.559379845 Z M3.04117061,4.62941307 C3.97352159,4.93089701 4.09006547,3.9133887 4.05121751,3.31042082 C3.66273793,3.19736434 3.27425835,3.04662237 2.92462673,2.93356589 C2.26421145,3.38579181 1.95342779,4.4409856 3.04117061,4.62941307 L3.04117061,4.62941307 Z" id="Shape" fill="#49C8F4"></path>
            </g>
            <g id="heart" transform="translate(15.441860, 0.000000)" sketch:type="MSShapeGroup">
                <path d="M3.6725513,7.04718715 C4.87683799,5.87893688 6.19766856,4.86142857 7.32425933,3.58012182 C7.01347567,5.31365449 5.65379715,7.08487265 3.6725513,7.04718715 L3.6725513,7.04718715 Z" id="Shape" fill="#49C8F4"></path>
                <path d="M2.39056869,1.88427464 C3.01213602,1.13056478 3.75024722,0.489911406 4.76029412,0.339169435 C3.71139926,1.13056478 2.74020031,2.22344408 2.9344401,3.61780731 C3.51715947,2.97715393 3.71139926,2.14807309 4.21642271,1.50741971 C4.72144616,0.866766334 5.57610123,0.640653378 6.31421243,0.489911406 C6.66384405,1.09287929 7.05232363,1.65816168 7.40195525,2.26112957 C6.46960426,4.07003322 4.72144616,5.20059801 3.32291968,6.59496124 C2.77904827,6.18042082 2.23517686,5.80356589 1.69130545,5.38902547 C1.69130545,4.40920266 1.65245749,3.39169435 2.11863299,2.48724252 C2.27402482,2.48724252 2.54596052,2.44955703 2.70135235,2.44955703 C2.58480848,2.29881506 2.42941665,2.03501661 2.39056869,1.88427464 L2.39056869,1.88427464 Z" id="Shape" fill="#49C8F4"></path>
                <path d="M4.72144616,0.376854928 C5.57610123,-0.0376854928 6.81923588,-0.376854928 7.55734708,0.489911406 C8.41200215,1.39436323 8.02352257,2.75104097 7.32425933,3.61780731 C6.23651651,4.86142857 4.87683799,5.91662237 3.6725513,7.08487265 C3.4006156,7.3109856 3.12867989,7.3109856 2.89559214,7.08487265 C2.00208911,6.51959025 1.10858609,5.87893688 0.448170803,5.04985604 C-0.173396521,4.25846069 -0.445332226,3.01483942 0.215083056,2.14807309 C0.758954466,1.5451052 1.69130545,1.77121816 2.39056869,1.92196013 C2.46826461,2.0727021 2.62365644,2.33650055 2.70135235,2.44955703 C2.54596052,2.44955703 2.27402482,2.48724252 2.11863299,2.48724252 C1.57476158,2.37418605 0.875498339,2.22344408 0.603562634,2.82641196 C0.137387141,3.80623477 1.06973813,4.7106866 1.69130545,5.38902547 C2.23517686,5.80356589 2.77904827,6.21810631 3.32291968,6.59496124 C4.76029412,5.20059801 6.46960426,4.03234773 7.40195525,2.26112957 C7.44080321,1.46973422 7.05232363,0.829080842 6.31421243,0.489911406 C5.53725327,0.67833887 4.72144616,0.904451827 4.21642271,1.50741971 C3.71139926,2.18575858 3.47831151,3.01483942 2.9344401,3.61780731 C2.74020031,2.22344408 3.71139926,1.13056478 4.72144616,0.376854928 L4.72144616,0.376854928 Z" id="Shape" fill="#565656"></path>
            </g>
        </g>
    </g>
</svg>